<svg width="24" height="19" viewBox="0 0 24 19" fill="none" xmlns="http://www.w3.org/2000/svg">
<path d="M9.59246 9.43003C8.28182 9.43003 7.20948 9.02423 6.37544 8.21264C5.5414 7.40104 5.12438 6.35756 5.12438 5.0822C5.12438 3.80684 5.5414 2.76336 6.37544 1.95177C7.20948 1.14017 8.28182 0.734375 9.59246 0.734375C10.9031 0.734375 11.9754 1.14017 12.8095 1.95177C13.6435 2.76336 14.0605 3.80684 14.0605 5.0822C14.0605 6.35756 13.6435 7.40104 12.8095 8.21264C11.9754 9.02423 10.9031 9.43003 9.59246 9.43003ZM0.954164 18.7344C0.696008 18.7344 0.482533 18.6523 0.313738 18.488C0.144944 18.3237 0.0605469 18.116 0.0605469 17.8648V16.0097C0.0605469 15.3334 0.234306 14.7247 0.581823 14.1837C0.929341 13.6426 1.43076 13.2271 2.08608 12.9373C3.51587 12.3189 4.8414 11.8745 6.06267 11.6039C7.28395 11.3334 8.46055 11.1981 9.59246 11.1981H10.2776C10.1584 11.4687 10.0691 11.7344 10.0095 11.9952C9.94991 12.2561 9.90026 12.5701 9.86055 12.9373H9.59246C8.44069 12.9373 7.31374 13.058 6.21161 13.2996C5.10948 13.5411 3.9726 13.9421 2.80097 14.5025C2.48324 14.6571 2.24494 14.8745 2.08608 15.1547C1.92721 15.4349 1.84778 15.7199 1.84778 16.0097V16.9952H9.86055C9.95984 17.3431 10.079 17.6571 10.218 17.9373C10.357 18.2175 10.5258 18.4832 10.7244 18.7344H0.954164ZM9.59246 7.6909C10.3669 7.6909 11.0074 7.44452 11.5137 6.95177C12.0201 6.45901 12.2733 5.83582 12.2733 5.0822C12.2733 4.32858 12.0201 3.70539 11.5137 3.21264C11.0074 2.71988 10.3669 2.47351 9.59246 2.47351C8.81799 2.47351 8.17757 2.71988 7.67119 3.21264C7.1648 3.70539 6.91161 4.32858 6.91161 5.0822C6.91161 5.83582 7.1648 6.45901 7.67119 6.95177C8.17757 7.44452 8.81799 7.6909 9.59246 7.6909Z" fill="#666666"/>
<path d="M18.5605 18.7344C18.3005 18.7344 18.0855 18.6494 17.9155 18.4794C17.7455 18.3094 17.6605 18.0944 17.6605 17.8344V15.1344H14.9605C14.7005 15.1344 14.4855 15.0494 14.3155 14.8794C14.1455 14.7094 14.0605 14.4944 14.0605 14.2344C14.0605 13.9744 14.1455 13.7594 14.3155 13.5894C14.4855 13.4194 14.7005 13.3344 14.9605 13.3344H17.6605V10.6344C17.6605 10.3744 17.7455 10.1594 17.9155 9.98937C18.0855 9.81937 18.3005 9.73438 18.5605 9.73438C18.8205 9.73438 19.0355 9.81937 19.2055 9.98937C19.3755 10.1594 19.4605 10.3744 19.4605 10.6344V13.3344H22.1605C22.4205 13.3344 22.6355 13.4194 22.8055 13.5894C22.9755 13.7594 23.0605 13.9744 23.0605 14.2344C23.0605 14.4944 22.9755 14.7094 22.8055 14.8794C22.6355 15.0494 22.4205 15.1344 22.1605 15.1344H19.4605V17.8344C19.4605 18.0944 19.3755 18.3094 19.2055 18.4794C19.0355 18.6494 18.8205 18.7344 18.5605 18.7344Z" fill="#666666"/>
</svg>
