<svg width="32" height="32" viewBox="0 0 32 32" fill="none" xmlns="http://www.w3.org/2000/svg">
<rect width="32" height="32" rx="16" fill="#FAF0FF"/>
<path d="M16.0196 6.91016C12.7096 6.91016 10.0196 9.60016 10.0196 12.9102V15.8002C10.0196 16.4102 9.7596 17.3402 9.4496 17.8602L8.2996 19.7702C7.5896 20.9502 8.0796 22.2602 9.3796 22.7002C13.6896 24.1402 18.3396 24.1402 22.6496 22.7002C23.8596 22.3002 24.3896 20.8702 23.7296 19.7702L22.5796 17.8602C22.2796 17.3402 22.0196 16.4102 22.0196 15.8002V12.9102C22.0196 9.61016 19.3196 6.91016 16.0196 6.91016Z" stroke="#BA68C8" stroke-width="1.5" stroke-miterlimit="10" stroke-linecap="round"/>
<path d="M17.8699 7.20043C17.5599 7.11043 17.2399 7.04043 16.9099 7.00043C15.9499 6.88043 15.0299 6.95043 14.1699 7.20043C14.4599 6.46043 15.1799 5.94043 16.0199 5.94043C16.8599 5.94043 17.5799 6.46043 17.8699 7.20043Z" stroke="#BA68C8" stroke-width="1.5" stroke-miterlimit="10" stroke-linecap="round" stroke-linejoin="round"/>
<path d="M19.0195 23.0596C19.0195 24.7096 17.6695 26.0596 16.0195 26.0596C15.1995 26.0596 14.4395 25.7196 13.8995 25.1796C13.3595 24.6396 13.0195 23.8796 13.0195 23.0596" stroke="#BA68C8" stroke-width="1.5" stroke-miterlimit="10"/>
</svg>
