<svg width="24" height="29" viewBox="0 0 24 29" fill="none" xmlns="http://www.w3.org/2000/svg">
<path d="M23.497 22.5998C23.0661 23.613 22.5561 24.5456 21.9651 25.4031C21.1596 26.572 20.5001 27.3811 19.9918 27.8304C19.2039 28.5679 18.3597 28.9456 17.4557 28.9671C16.8067 28.9671 16.024 28.7791 15.113 28.3978C14.199 28.0183 13.359 27.8304 12.5909 27.8304C11.7854 27.8304 10.9215 28.0183 9.99748 28.3978C9.07202 28.7791 8.32648 28.9778 7.75647 28.9975C6.88958 29.0351 6.0255 28.6467 5.16301 27.8304C4.61252 27.3417 3.92396 26.5039 3.09911 25.3171C2.2141 24.0498 1.4865 22.5801 0.916488 20.9046C0.306024 19.0948 0 17.3424 0 15.6457C0 13.7023 0.412605 12.026 1.23904 10.6214C1.88855 9.4931 2.75263 8.60308 3.83409 7.9497C4.91555 7.29633 6.08407 6.96337 7.34246 6.94207C8.03101 6.94207 8.93396 7.15885 10.056 7.58489C11.175 8.01235 11.8934 8.22913 12.2084 8.22913C12.4439 8.22913 13.242 7.97566 14.595 7.47032C15.8745 7.00168 16.9544 6.80764 17.8391 6.88407C20.2363 7.08098 22.0372 8.04278 23.2349 9.77557C21.091 11.0977 20.0305 12.9495 20.0516 15.3251C20.0709 17.1755 20.7305 18.7154 22.0267 19.938C22.6141 20.5054 23.2701 20.944 24 21.2555C23.8417 21.7227 23.6746 22.1702 23.497 22.5998ZM17.9991 0.580165C17.9991 2.0305 17.4785 3.38467 16.4409 4.63807C15.1886 6.12813 13.674 6.98915 12.0315 6.85328C12.0106 6.67929 11.9984 6.49616 11.9984 6.30373C11.9984 4.91142 12.5939 3.42136 13.6515 2.20304C14.1795 1.58618 14.8509 1.07328 15.6653 0.664118C16.4778 0.261066 17.2464 0.0381701 17.9692 0C17.9903 0.193887 17.9991 0.387785 17.9991 0.580146V0.580165Z" fill="black"/>
</svg>
