<svg width="48" height="44" viewBox="0 0 48 44" fill="none" xmlns="http://www.w3.org/2000/svg">
<path d="M1.0141 13.0959C2.60829 5.89498 7.51348 1.88431 15.1647 0.672712C20.8207 -0.222745 26.4788 -0.234085 32.1254 0.697857C40.0034 1.998 44.7394 6.24257 46.2481 13.5524C47.4137 19.2016 47.432 24.9111 46.2298 30.555C44.617 37.706 39.5853 42.1202 31.9623 43.3274C26.3062 44.2227 20.6481 44.2341 15.0016 43.3022C7.12354 42.002 2.36654 37.5455 0.857913 30.2358C-0.367174 24.5493 -0.249296 18.8037 1.0141 13.0958V13.0959Z" fill="#73B04B"/>
<path fill-rule="evenodd" clip-rule="evenodd" d="M14.9589 18.6295L16.9518 17.9429C16.9518 17.9429 18.4879 20.8114 21.5206 23.6528C24.5532 26.4941 27.9104 28.0357 27.9104 28.0357L27.0502 29.9217C27.0502 29.9217 23.2695 27.8712 20.1439 24.9428C17.0181 22.0143 14.9589 18.6295 14.9589 18.6295ZM37.245 27.5115C38.5948 28.1403 38.8883 29.8242 37.8224 30.8229L33.2536 35.1035C32.9214 35.415 32.5152 35.6485 32.0683 35.7848C31.6213 35.9212 31.1463 35.9565 30.682 35.8879C30.3703 35.8416 30.0596 35.7891 29.7503 35.7305C26.9611 35.3757 21.474 34.0449 16.1996 29.103C10.632 23.8867 9.04442 18.043 8.59617 15.3814C8.52297 14.9464 8.56065 14.5014 8.70613 14.0826C8.8516 13.6639 9.10075 13.2834 9.4332 12.9721L14.0022 8.69143C15.0681 7.69273 16.8655 7.96784 17.5367 9.23249L21.0629 15.8767L19.3005 16.6921L16.0323 10.49C15.8424 10.1298 15.3311 10.0508 15.0279 10.3349L11.2867 13.8399C11.0936 14.0209 10.9425 14.2374 10.843 14.4758C10.7435 14.7141 10.6977 14.9692 10.7086 15.225C10.7724 16.7414 11.2514 19.6554 13.5874 23.169C14.5471 24.5101 15.7934 25.9567 17.4131 27.4742C23.0159 32.7236 28.091 33.7392 30.5291 33.8922C30.8613 33.886 31.1224 33.8636 31.3048 33.8419C31.5459 33.8133 31.7805 33.7429 31.9862 33.6218C32.1096 33.5491 32.224 33.4637 32.3272 33.3671L36.0683 29.862C36.3716 29.5779 36.2872 29.0988 35.9029 28.921L29.283 25.8588L30.1531 24.2076L37.245 27.5115Z" fill="white"/>
</svg>
