<svg width="32" height="32" viewBox="0 0 32 32" fill="none" xmlns="http://www.w3.org/2000/svg">
<path d="M26.6141 11.9468C25.7208 10.9602 24.3741 10.3868 22.5075 10.1868V9.17349C22.5075 7.34682 21.7341 5.58682 20.3741 4.36015C19.0008 3.10682 17.2141 2.52015 15.3608 2.69349C12.1741 3.00015 9.49413 6.08015 9.49413 9.41349V10.1868C7.62747 10.3868 6.2808 10.9602 5.38747 11.9468C4.09413 13.3868 4.13413 15.3068 4.2808 16.6402L5.21413 24.0668C5.49413 26.6668 6.54747 29.3335 12.2808 29.3335H19.7208C25.4541 29.3335 26.5075 26.6668 26.7875 24.0802L27.7208 16.6268C27.8675 15.3068 27.8941 13.3868 26.6141 11.9468ZM15.5475 4.54682C16.8808 4.42682 18.1475 4.84015 19.1341 5.73349C20.1075 6.61349 20.6541 7.86682 20.6541 9.17349V10.1068H11.3475V9.41349C11.3475 7.04015 13.3075 4.76015 15.5475 4.54682ZM11.2275 17.5335H11.2141C10.4808 17.5335 9.8808 16.9335 9.8808 16.2002C9.8808 15.4668 10.4808 14.8668 11.2141 14.8668C11.9608 14.8668 12.5608 15.4668 12.5608 16.2002C12.5608 16.9335 11.9608 17.5335 11.2275 17.5335ZM20.5608 17.5335H20.5475C19.8141 17.5335 19.2141 16.9335 19.2141 16.2002C19.2141 15.4668 19.8141 14.8668 20.5475 14.8668C21.2941 14.8668 21.8941 15.4668 21.8941 16.2002C21.8941 16.9335 21.2941 17.5335 20.5608 17.5335Z" fill="white"/>
</svg>
