<svg width="32" height="32" viewBox="0 0 32 32" fill="none" xmlns="http://www.w3.org/2000/svg">
<rect width="32" height="32" rx="16" fill="#FAF0FF"/>
<path d="M10 14V12C10 8.69 11 6 16 6C21 6 22 8.69 22 12V14" stroke="#BA68C8" stroke-width="1.5" stroke-linecap="round" stroke-linejoin="round"/>
<path d="M16 22.5C17.3807 22.5 18.5 21.3807 18.5 20C18.5 18.6193 17.3807 17.5 16 17.5C14.6193 17.5 13.5 18.6193 13.5 20C13.5 21.3807 14.6193 22.5 16 22.5Z" stroke="#BA68C8" stroke-width="1.5" stroke-linecap="round" stroke-linejoin="round"/>
<path d="M21 26H11C7 26 6 25 6 21V19C6 15 7 14 11 14H21C25 14 26 15 26 19V21C26 25 25 26 21 26Z" stroke="#BA68C8" stroke-width="1.5" stroke-linecap="round" stroke-linejoin="round"/>
</svg>
