<svg width="24" height="24" viewBox="0 0 24 24" fill="none" xmlns="http://www.w3.org/2000/svg">
<g clip-path="url(#clip0_496_48456)">
<path d="M19.904 9.12912H18.704V6.58896C18.704 5.90356 18.1483 5.3479 17.4629 5.3479H4.41698C3.37284 5.3479 2.52637 6.19437 2.52637 7.23851C2.52637 7.27113 2.52637 7.27113 2.52637 7.23851V22.1094C2.52637 23.1535 3.37284 24 4.41698 24H19.904C20.5894 24 21.145 23.4443 21.145 22.7589V10.3702C21.1451 9.68478 20.5894 9.12912 19.904 9.12912Z" fill="url(#paint0_linear_496_48456)"/>
<path d="M4.1194 10.2358H3.31198C3.19634 10.2358 3.10254 10.142 3.10254 10.0263C3.10254 9.91069 3.19629 9.81689 3.31198 9.81689H4.11935C4.23499 9.81689 4.32879 9.91064 4.32879 10.0263C4.32879 10.142 4.23504 10.2358 4.1194 10.2358Z" fill="url(#paint1_linear_496_48456)"/>
<path d="M5.92404 10.2358H5.11666C5.00102 10.2358 4.90723 10.142 4.90723 10.0263C4.90723 9.91069 5.00098 9.81689 5.11666 9.81689H5.92404C6.03968 9.81689 6.13348 9.91064 6.13348 10.0263C6.13343 10.142 6.03968 10.2358 5.92404 10.2358Z" fill="url(#paint2_linear_496_48456)"/>
<path d="M7.72877 10.2358H6.92135C6.80571 10.2358 6.71191 10.142 6.71191 10.0263C6.71191 9.91069 6.80566 9.81689 6.92135 9.81689H7.72873C7.84437 9.81689 7.93816 9.91064 7.93816 10.0263C7.93816 10.142 7.84441 10.2358 7.72877 10.2358Z" fill="url(#paint3_linear_496_48456)"/>
<path d="M9.53244 10.2358H8.72506C8.60942 10.2358 8.51562 10.142 8.51562 10.0263C8.51562 9.91069 8.60938 9.81689 8.72506 9.81689H9.53244C9.64808 9.81689 9.74187 9.91064 9.74187 10.0263C9.74183 10.142 9.64808 10.2358 9.53244 10.2358Z" fill="url(#paint4_linear_496_48456)"/>
<path d="M11.3371 10.2358H10.5298C10.4141 10.2358 10.3203 10.142 10.3203 10.0263C10.3203 9.91069 10.4141 9.81689 10.5298 9.81689H11.3371C11.4528 9.81689 11.5466 9.91064 11.5466 10.0263C11.5466 10.142 11.4528 10.2358 11.3371 10.2358Z" fill="url(#paint5_linear_496_48456)"/>
<path d="M13.1418 10.2358H12.3344C12.2188 10.2358 12.125 10.142 12.125 10.0263C12.125 9.91069 12.2188 9.81689 12.3344 9.81689H13.1418C13.2575 9.81689 13.3512 9.91064 13.3512 10.0263C13.3512 10.142 13.2575 10.2358 13.1418 10.2358Z" fill="url(#paint6_linear_496_48456)"/>
<path d="M14.9465 10.2358H14.1391C14.0235 10.2358 13.9297 10.142 13.9297 10.0263C13.9297 9.91069 14.0234 9.81689 14.1391 9.81689H14.9465C15.0621 9.81689 15.1559 9.91064 15.1559 10.0263C15.1559 10.142 15.0622 10.2358 14.9465 10.2358Z" fill="url(#paint7_linear_496_48456)"/>
<path d="M16.7502 10.2358H15.9428C15.8271 10.2358 15.7334 10.142 15.7334 10.0263C15.7334 9.91069 15.8271 9.81689 15.9428 9.81689H16.7502C16.8658 9.81689 16.9596 9.91064 16.9596 10.0263C16.9596 10.142 16.8659 10.2358 16.7502 10.2358Z" fill="url(#paint8_linear_496_48456)"/>
<path d="M18.5549 10.2358H17.7475C17.6318 10.2358 17.5381 10.142 17.5381 10.0263C17.5381 9.91069 17.6318 9.81689 17.7475 9.81689H18.5549C18.6705 9.81689 18.7643 9.91064 18.7643 10.0263C18.7642 10.142 18.6705 10.2358 18.5549 10.2358Z" fill="url(#paint9_linear_496_48456)"/>
<path d="M20.3595 10.2358H19.5522C19.4365 10.2358 19.3428 10.142 19.3428 10.0263C19.3428 9.91069 19.4365 9.81689 19.5522 9.81689H20.3595C20.4752 9.81689 20.5689 9.91064 20.5689 10.0263C20.5689 10.142 20.4752 10.2358 20.3595 10.2358Z" fill="url(#paint10_linear_496_48456)"/>
<path d="M4.1194 23.082H3.31198C3.19634 23.082 3.10254 22.9883 3.10254 22.8726C3.10254 22.757 3.19629 22.6632 3.31198 22.6632H4.11935C4.23499 22.6632 4.32879 22.757 4.32879 22.8726C4.32879 22.9883 4.23504 23.082 4.1194 23.082Z" fill="url(#paint11_linear_496_48456)"/>
<path d="M5.92404 23.082H5.11666C5.00102 23.082 4.90723 22.9883 4.90723 22.8726C4.90723 22.757 5.00098 22.6632 5.11666 22.6632H5.92404C6.03968 22.6632 6.13348 22.757 6.13348 22.8726C6.13343 22.9883 6.03968 23.082 5.92404 23.082Z" fill="url(#paint12_linear_496_48456)"/>
<path d="M7.72877 23.082H6.92135C6.80571 23.082 6.71191 22.9883 6.71191 22.8726C6.71191 22.757 6.80566 22.6632 6.92135 22.6632H7.72873C7.84437 22.6632 7.93816 22.757 7.93816 22.8726C7.93816 22.9883 7.84441 23.082 7.72877 23.082Z" fill="url(#paint13_linear_496_48456)"/>
<path d="M9.53244 23.082H8.72506C8.60942 23.082 8.51562 22.9883 8.51562 22.8726C8.51562 22.757 8.60938 22.6632 8.72506 22.6632H9.53244C9.64808 22.6632 9.74188 22.757 9.74188 22.8726C9.74183 22.9883 9.64808 23.082 9.53244 23.082Z" fill="url(#paint14_linear_496_48456)"/>
<path d="M11.3371 23.082H10.5298C10.4141 23.082 10.3203 22.9883 10.3203 22.8726C10.3203 22.757 10.4141 22.6632 10.5298 22.6632H11.3371C11.4528 22.6632 11.5466 22.757 11.5466 22.8726C11.5466 22.9883 11.4528 23.082 11.3371 23.082Z" fill="url(#paint15_linear_496_48456)"/>
<path d="M13.1418 23.082H12.3344C12.2188 23.082 12.125 22.9883 12.125 22.8726C12.125 22.757 12.2188 22.6632 12.3344 22.6632H13.1418C13.2575 22.6632 13.3512 22.757 13.3512 22.8726C13.3512 22.9883 13.2575 23.082 13.1418 23.082Z" fill="url(#paint16_linear_496_48456)"/>
<path d="M14.9465 23.082H14.1391C14.0235 23.082 13.9297 22.9883 13.9297 22.8726C13.9297 22.757 14.0234 22.6632 14.1391 22.6632H14.9465C15.0621 22.6632 15.1559 22.757 15.1559 22.8726C15.1559 22.9883 15.0622 23.082 14.9465 23.082Z" fill="url(#paint17_linear_496_48456)"/>
<path d="M16.7502 23.082H15.9428C15.8271 23.082 15.7334 22.9883 15.7334 22.8726C15.7334 22.757 15.8271 22.6632 15.9428 22.6632H16.7502C16.8658 22.6632 16.9596 22.757 16.9596 22.8726C16.9596 22.9883 16.8659 23.082 16.7502 23.082Z" fill="url(#paint18_linear_496_48456)"/>
<path d="M18.5549 23.082H17.7475C17.6318 23.082 17.5381 22.9883 17.5381 22.8726C17.5381 22.757 17.6318 22.6632 17.7475 22.6632H18.5549C18.6705 22.6632 18.7643 22.757 18.7643 22.8726C18.7642 22.9883 18.6705 23.082 18.5549 23.082Z" fill="url(#paint19_linear_496_48456)"/>
<path d="M20.3595 23.082H19.5522C19.4365 23.082 19.3428 22.9883 19.3428 22.8726C19.3428 22.757 19.4365 22.6632 19.5522 22.6632H20.3595C20.4752 22.6632 20.5689 22.757 20.5689 22.8726C20.5689 22.9883 20.4752 23.082 20.3595 23.082Z" fill="url(#paint20_linear_496_48456)"/>
<path d="M19.9037 9.12912H18.7037V6.58896C18.7037 5.90356 18.148 5.3479 17.4626 5.3479H9.34473V24H19.9037C20.5891 24 21.1448 23.4443 21.1448 22.7589V10.3702C21.1448 9.68478 20.5891 9.12912 19.9037 9.12912Z" fill="url(#paint21_linear_496_48456)"/>
<path d="M18.704 9.12912H4.41698C3.37284 9.12912 2.52637 8.28265 2.52637 7.23851C2.52637 6.19437 3.37284 5.3479 4.41698 5.3479H17.4629C18.1483 5.3479 18.7039 5.90356 18.7039 6.58896V9.12912H18.704Z" fill="url(#paint22_linear_496_48456)"/>
<path d="M18.7037 6.58901V9.12879H14.0684V5.3479H17.4626C18.1482 5.3479 18.7037 5.90342 18.7037 6.58901Z" fill="url(#paint23_linear_496_48456)"/>
<path d="M18.7037 6.58901V9.12879H14.0684V5.3479H17.4626C18.1482 5.3479 18.7037 5.90342 18.7037 6.58901Z" fill="url(#paint24_linear_496_48456)"/>
<path d="M2.52637 17.5251V22.1093C2.52637 23.1535 3.37284 23.9999 4.41698 23.9999H19.904C20.5894 23.9999 21.145 23.4443 21.145 22.7589V17.5251H2.52637Z" fill="url(#paint25_linear_496_48456)"/>
<path d="M3.81836 7.76187C3.81836 8.51646 4.43008 9.12823 5.18467 9.12827L18.7038 9.12916V6.58901C18.7038 6.52301 18.6972 6.4587 18.6873 6.39551H5.18477C4.43012 6.39546 3.81836 7.00723 3.81836 7.76187Z" fill="url(#paint26_linear_496_48456)"/>
<path d="M15.2715 17.7889L20.9341 23.4516C21.0674 23.2537 21.1453 23.0155 21.1453 22.7589V17.7889H15.2715Z" fill="url(#paint27_linear_496_48456)"/>
<path d="M20.9706 18.3943H16.8149C15.5602 18.3943 14.543 17.3772 14.543 16.1224C14.543 14.8677 15.5602 13.8505 16.8149 13.8505H20.9706C21.2485 13.8505 21.4739 14.0758 21.4739 14.3538V17.8911C21.4739 18.169 21.2485 18.3943 20.9706 18.3943Z" fill="url(#paint28_linear_496_48456)"/>
<path d="M14.6598 15.4034C14.5844 15.6294 14.543 15.8709 14.543 16.1223C14.543 17.3771 15.5602 18.3943 16.8149 18.3943H20.9706C21.2485 18.3943 21.4739 18.1689 21.4739 17.891V15.4033H14.6598V15.4034Z" fill="url(#paint29_linear_496_48456)"/>
<path d="M20.9701 13.8503H17.6484V18.3943H20.9701C21.2481 18.3943 21.4734 18.1689 21.4734 17.891V14.3536C21.4734 14.0757 21.2481 13.8503 20.9701 13.8503Z" fill="url(#paint30_linear_496_48456)"/>
<path d="M17.1888 18.3944H20.5682L17.4514 15.2776L15.7617 16.9673L17.1888 18.3944Z" fill="url(#paint31_linear_496_48456)"/>
<path d="M16.6069 17.3172C17.2668 17.3172 17.8017 16.7823 17.8017 16.1224C17.8017 15.4625 17.2668 14.9276 16.6069 14.9276C15.947 14.9276 15.4121 15.4625 15.4121 16.1224C15.4121 16.7823 15.947 17.3172 16.6069 17.3172Z" fill="url(#paint32_linear_496_48456)"/>
<path d="M15.4121 16.1224C15.4121 16.7823 15.947 17.3172 16.6069 17.3172C17.2668 17.3172 17.8017 16.7823 17.8017 16.1224C17.8017 15.9795 17.7765 15.8425 17.7305 15.7155H15.4833C15.4373 15.8425 15.4121 15.9795 15.4121 16.1224Z" fill="url(#paint33_linear_496_48456)"/>
<path d="M15.7619 16.9673C16.2285 17.4339 16.985 17.4339 17.4516 16.9673C17.9182 16.5007 17.9182 15.7442 17.4516 15.2776C17.3505 15.1765 17.2359 15.0974 17.1135 15.0402L15.5244 16.6292C15.5817 16.7516 15.6608 16.8662 15.7619 16.9673Z" fill="url(#paint34_linear_496_48456)"/>
<path d="M17.072 9.12914H8.24805V0.86025C8.24805 0.385125 8.63317 0 9.1083 0H16.2117C16.6868 0 17.072 0.385125 17.072 0.86025V9.12914Z" fill="url(#paint35_linear_496_48456)"/>
<path d="M9.71859 2.12103C10.1058 2.12103 10.4196 1.80717 10.4196 1.42001C10.4196 1.03285 10.1058 0.718994 9.71859 0.718994C9.33143 0.718994 9.01758 1.03285 9.01758 1.42001C9.01758 1.80717 9.33143 2.12103 9.71859 2.12103Z" fill="url(#paint36_linear_496_48456)"/>
<path d="M15.7039 2.12103C16.0911 2.12103 16.405 1.80717 16.405 1.42001C16.405 1.03285 16.0911 0.718994 15.7039 0.718994C15.3168 0.718994 15.0029 1.03285 15.0029 1.42001C15.0029 1.80717 15.3168 2.12103 15.7039 2.12103Z" fill="url(#paint37_linear_496_48456)"/>
<path d="M15.8263 3.04234V9.12882H9.49414V3.04229C9.49414 2.84068 9.64044 2.67357 9.83825 2.63448C10.0877 2.58517 10.3256 2.46381 10.5186 2.27035C10.7113 2.07765 10.8327 1.84037 10.8823 1.59151C10.9204 1.40049 11.0915 1.26526 11.2863 1.26526H14.0338C14.2287 1.26526 14.3998 1.40068 14.4378 1.59184C14.4873 1.8406 14.6086 2.07774 14.8012 2.2704C14.9946 2.46385 15.2327 2.58521 15.4822 2.63452C15.68 2.67357 15.8263 2.84068 15.8263 3.04234Z" fill="url(#paint38_linear_496_48456)"/>
<path d="M16.2119 0H12.5117V9.12914H17.0721V0.86025C17.0721 0.385125 16.687 0 16.2119 0Z" fill="url(#paint39_linear_496_48456)"/>
<path d="M13.905 9.1292H5.08105V3.29336C5.08105 2.81828 5.46618 2.43311 5.9413 2.43311H13.0448C13.5199 2.43311 13.905 2.81823 13.905 3.29336L13.905 9.1292Z" fill="url(#paint40_linear_496_48456)"/>
<path d="M6.5516 4.55413C6.93876 4.55413 7.25262 4.24028 7.25262 3.85311C7.25262 3.46595 6.93876 3.1521 6.5516 3.1521C6.16444 3.1521 5.85059 3.46595 5.85059 3.85311C5.85059 4.24028 6.16444 4.55413 6.5516 4.55413Z" fill="url(#paint41_linear_496_48456)"/>
<path d="M12.537 4.55413C12.9241 4.55413 13.238 4.24028 13.238 3.85311C13.238 3.46595 12.9241 3.1521 12.537 3.1521C12.1498 3.1521 11.8359 3.46595 11.8359 3.85311C11.8359 4.24028 12.1498 4.55413 12.537 4.55413Z" fill="url(#paint42_linear_496_48456)"/>
<path d="M12.6593 5.47552V9.12891H6.32715V5.47552C6.32715 5.27391 6.47345 5.1068 6.67126 5.06771C6.92068 5.01839 7.15862 4.89703 7.35165 4.70358C7.54435 4.51088 7.66566 4.2736 7.71531 4.02474C7.75341 3.83372 7.92451 3.69849 8.11927 3.69849H10.8668C11.0617 3.69849 11.2328 3.83391 11.2708 4.02506C11.3203 4.27383 11.4415 4.51097 11.6341 4.70363C11.8276 4.89708 12.0657 5.01844 12.3151 5.06775C12.513 5.1068 12.6593 5.27391 12.6593 5.47552Z" fill="url(#paint43_linear_496_48456)"/>
<path d="M13.0449 2.43311H9.34473V9.12915H13.9051V3.29331C13.9051 2.81823 13.52 2.43311 13.0449 2.43311Z" fill="url(#paint44_linear_496_48456)"/>
</g>
<defs>
<linearGradient id="paint0_linear_496_48456" x1="2.68012" y1="14.6739" x2="19.0775" y2="14.6739" gradientUnits="userSpaceOnUse">
<stop stop-color="#F89580"/>
<stop offset="1" stop-color="#C4573A"/>
</linearGradient>
<linearGradient id="paint1_linear_496_48456" x1="3.71566" y1="10.1939" x2="3.71566" y2="9.77508" gradientUnits="userSpaceOnUse">
<stop stop-color="#F89580"/>
<stop offset="1" stop-color="#C4573A"/>
</linearGradient>
<linearGradient id="paint2_linear_496_48456" x1="5.52035" y1="10.1939" x2="5.52035" y2="9.77508" gradientUnits="userSpaceOnUse">
<stop stop-color="#F89580"/>
<stop offset="1" stop-color="#C4573A"/>
</linearGradient>
<linearGradient id="paint3_linear_496_48456" x1="7.32509" y1="10.1939" x2="7.32509" y2="9.77508" gradientUnits="userSpaceOnUse">
<stop stop-color="#F89580"/>
<stop offset="1" stop-color="#C4573A"/>
</linearGradient>
<linearGradient id="paint4_linear_496_48456" x1="9.12875" y1="10.1939" x2="9.12875" y2="9.77508" gradientUnits="userSpaceOnUse">
<stop stop-color="#F89580"/>
<stop offset="1" stop-color="#C4573A"/>
</linearGradient>
<linearGradient id="paint5_linear_496_48456" x1="10.9334" y1="10.1939" x2="10.9334" y2="9.77508" gradientUnits="userSpaceOnUse">
<stop stop-color="#F89580"/>
<stop offset="1" stop-color="#C4573A"/>
</linearGradient>
<linearGradient id="paint6_linear_496_48456" x1="12.7381" y1="10.1939" x2="12.7381" y2="9.77508" gradientUnits="userSpaceOnUse">
<stop stop-color="#F89580"/>
<stop offset="1" stop-color="#C4573A"/>
</linearGradient>
<linearGradient id="paint7_linear_496_48456" x1="14.5428" y1="10.1939" x2="14.5428" y2="9.77508" gradientUnits="userSpaceOnUse">
<stop stop-color="#F89580"/>
<stop offset="1" stop-color="#C4573A"/>
</linearGradient>
<linearGradient id="paint8_linear_496_48456" x1="16.3465" y1="10.1939" x2="16.3465" y2="9.77508" gradientUnits="userSpaceOnUse">
<stop stop-color="#F89580"/>
<stop offset="1" stop-color="#C4573A"/>
</linearGradient>
<linearGradient id="paint9_linear_496_48456" x1="18.1511" y1="10.1939" x2="18.1511" y2="9.77508" gradientUnits="userSpaceOnUse">
<stop stop-color="#F89580"/>
<stop offset="1" stop-color="#C4573A"/>
</linearGradient>
<linearGradient id="paint10_linear_496_48456" x1="19.9558" y1="10.1939" x2="19.9558" y2="9.77508" gradientUnits="userSpaceOnUse">
<stop stop-color="#F89580"/>
<stop offset="1" stop-color="#C4573A"/>
</linearGradient>
<linearGradient id="paint11_linear_496_48456" x1="3.71566" y1="23.0402" x2="3.71566" y2="22.6213" gradientUnits="userSpaceOnUse">
<stop stop-color="#F89580"/>
<stop offset="1" stop-color="#C4573A"/>
</linearGradient>
<linearGradient id="paint12_linear_496_48456" x1="5.52035" y1="23.0402" x2="5.52035" y2="22.6213" gradientUnits="userSpaceOnUse">
<stop stop-color="#F89580"/>
<stop offset="1" stop-color="#C4573A"/>
</linearGradient>
<linearGradient id="paint13_linear_496_48456" x1="7.32509" y1="23.0402" x2="7.32509" y2="22.6213" gradientUnits="userSpaceOnUse">
<stop stop-color="#F89580"/>
<stop offset="1" stop-color="#C4573A"/>
</linearGradient>
<linearGradient id="paint14_linear_496_48456" x1="9.12875" y1="23.0402" x2="9.12875" y2="22.6213" gradientUnits="userSpaceOnUse">
<stop stop-color="#F89580"/>
<stop offset="1" stop-color="#C4573A"/>
</linearGradient>
<linearGradient id="paint15_linear_496_48456" x1="10.9334" y1="23.0402" x2="10.9334" y2="22.6213" gradientUnits="userSpaceOnUse">
<stop stop-color="#F89580"/>
<stop offset="1" stop-color="#C4573A"/>
</linearGradient>
<linearGradient id="paint16_linear_496_48456" x1="12.7381" y1="23.0402" x2="12.7381" y2="22.6213" gradientUnits="userSpaceOnUse">
<stop stop-color="#F89580"/>
<stop offset="1" stop-color="#C4573A"/>
</linearGradient>
<linearGradient id="paint17_linear_496_48456" x1="14.5428" y1="23.0402" x2="14.5428" y2="22.6213" gradientUnits="userSpaceOnUse">
<stop stop-color="#F89580"/>
<stop offset="1" stop-color="#C4573A"/>
</linearGradient>
<linearGradient id="paint18_linear_496_48456" x1="16.3465" y1="23.0402" x2="16.3465" y2="22.6213" gradientUnits="userSpaceOnUse">
<stop stop-color="#F89580"/>
<stop offset="1" stop-color="#C4573A"/>
</linearGradient>
<linearGradient id="paint19_linear_496_48456" x1="18.1511" y1="23.0402" x2="18.1511" y2="22.6213" gradientUnits="userSpaceOnUse">
<stop stop-color="#F89580"/>
<stop offset="1" stop-color="#C4573A"/>
</linearGradient>
<linearGradient id="paint20_linear_496_48456" x1="19.9558" y1="23.0402" x2="19.9558" y2="22.6213" gradientUnits="userSpaceOnUse">
<stop stop-color="#F89580"/>
<stop offset="1" stop-color="#C4573A"/>
</linearGradient>
<linearGradient id="paint21_linear_496_48456" x1="17.7352" y1="14.6739" x2="21.0003" y2="14.6739" gradientUnits="userSpaceOnUse">
<stop stop-color="#C4573A" stop-opacity="0"/>
<stop offset="0.235" stop-color="#BE5539" stop-opacity="0.235"/>
<stop offset="0.539" stop-color="#AE4E35" stop-opacity="0.539"/>
<stop offset="0.8794" stop-color="#934330" stop-opacity="0.879"/>
<stop offset="1" stop-color="#883F2E"/>
</linearGradient>
<linearGradient id="paint22_linear_496_48456" x1="8.57451" y1="2.31251" x2="12.3923" y2="11.048" gradientUnits="userSpaceOnUse">
<stop stop-color="#C4573A" stop-opacity="0"/>
<stop offset="0.235" stop-color="#BE5539" stop-opacity="0.235"/>
<stop offset="0.539" stop-color="#AE4E35" stop-opacity="0.539"/>
<stop offset="0.8794" stop-color="#934330" stop-opacity="0.879"/>
<stop offset="1" stop-color="#883F2E"/>
</linearGradient>
<linearGradient id="paint23_linear_496_48456" x1="15.794" y1="7.23832" x2="18.3053" y2="7.23832" gradientUnits="userSpaceOnUse">
<stop stop-color="#C4573A" stop-opacity="0"/>
<stop offset="0.235" stop-color="#BE5539" stop-opacity="0.235"/>
<stop offset="0.539" stop-color="#AE4E35" stop-opacity="0.539"/>
<stop offset="0.8794" stop-color="#934330" stop-opacity="0.879"/>
<stop offset="1" stop-color="#883F2E"/>
</linearGradient>
<linearGradient id="paint24_linear_496_48456" x1="18.4254" y1="7.23832" x2="17.0233" y2="7.23832" gradientUnits="userSpaceOnUse">
<stop stop-color="#C4573A" stop-opacity="0"/>
<stop offset="0.235" stop-color="#BE5539" stop-opacity="0.235"/>
<stop offset="0.539" stop-color="#AE4E35" stop-opacity="0.539"/>
<stop offset="0.8794" stop-color="#934330" stop-opacity="0.879"/>
<stop offset="1" stop-color="#883F2E"/>
</linearGradient>
<linearGradient id="paint25_linear_496_48456" x1="11.8357" y1="20.1917" x2="11.8357" y2="23.947" gradientUnits="userSpaceOnUse">
<stop stop-color="#C4573A" stop-opacity="0"/>
<stop offset="0.235" stop-color="#BE5539" stop-opacity="0.235"/>
<stop offset="0.539" stop-color="#AE4E35" stop-opacity="0.539"/>
<stop offset="0.8794" stop-color="#934330" stop-opacity="0.879"/>
<stop offset="1" stop-color="#883F2E"/>
</linearGradient>
<linearGradient id="paint26_linear_496_48456" x1="11.2611" y1="6.83323" x2="11.2611" y2="9.02815" gradientUnits="userSpaceOnUse">
<stop stop-color="#C4573A" stop-opacity="0"/>
<stop offset="0.235" stop-color="#BE5539" stop-opacity="0.235"/>
<stop offset="0.539" stop-color="#AE4E35" stop-opacity="0.539"/>
<stop offset="0.8794" stop-color="#934330" stop-opacity="0.879"/>
<stop offset="1" stop-color="#883F2E"/>
</linearGradient>
<linearGradient id="paint27_linear_496_48456" x1="18.9934" y1="23.7596" x2="18.2816" y2="18.3457" gradientUnits="userSpaceOnUse">
<stop stop-color="#C4573A" stop-opacity="0"/>
<stop offset="0.235" stop-color="#BE5539" stop-opacity="0.235"/>
<stop offset="0.539" stop-color="#AE4E35" stop-opacity="0.539"/>
<stop offset="0.8794" stop-color="#934330" stop-opacity="0.879"/>
<stop offset="1" stop-color="#883F2E"/>
</linearGradient>
<linearGradient id="paint28_linear_496_48456" x1="17.8576" y1="13.9636" x2="18.4041" y2="18.7663" gradientUnits="userSpaceOnUse">
<stop stop-color="#F89580"/>
<stop offset="1" stop-color="#C4573A"/>
</linearGradient>
<linearGradient id="paint29_linear_496_48456" x1="18.0084" y1="16.7263" x2="18.0084" y2="18.3432" gradientUnits="userSpaceOnUse">
<stop stop-color="#C4573A" stop-opacity="0"/>
<stop offset="0.235" stop-color="#BE5539" stop-opacity="0.235"/>
<stop offset="0.539" stop-color="#AE4E35" stop-opacity="0.539"/>
<stop offset="0.8794" stop-color="#934330" stop-opacity="0.879"/>
<stop offset="1" stop-color="#883F2E"/>
</linearGradient>
<linearGradient id="paint30_linear_496_48456" x1="19.4602" y1="16.1223" x2="21.622" y2="16.1223" gradientUnits="userSpaceOnUse">
<stop stop-color="#C4573A" stop-opacity="0"/>
<stop offset="0.235" stop-color="#BE5539" stop-opacity="0.235"/>
<stop offset="0.539" stop-color="#AE4E35" stop-opacity="0.539"/>
<stop offset="0.8794" stop-color="#934330" stop-opacity="0.879"/>
<stop offset="1" stop-color="#883F2E"/>
</linearGradient>
<linearGradient id="paint31_linear_496_48456" x1="18.2587" y1="17.7639" x2="16.9933" y2="16.5129" gradientUnits="userSpaceOnUse">
<stop stop-color="#C4573A" stop-opacity="0"/>
<stop offset="0.235" stop-color="#BE5539" stop-opacity="0.235"/>
<stop offset="0.539" stop-color="#AE4E35" stop-opacity="0.539"/>
<stop offset="0.8794" stop-color="#934330" stop-opacity="0.879"/>
<stop offset="1" stop-color="#883F2E"/>
</linearGradient>
<linearGradient id="paint32_linear_496_48456" x1="15.8761" y1="15.3915" x2="17.1945" y2="16.7099" gradientUnits="userSpaceOnUse">
<stop stop-color="#5A5A5A"/>
<stop offset="1" stop-color="#444444"/>
</linearGradient>
<linearGradient id="paint33_linear_496_48456" x1="16.6069" y1="16.1375" x2="16.6069" y2="17.5431" gradientUnits="userSpaceOnUse">
<stop stop-color="#433F43" stop-opacity="0"/>
<stop offset="1" stop-color="#1A1A1A"/>
</linearGradient>
<linearGradient id="paint34_linear_496_48456" x1="16.6228" y1="16.1324" x2="17.6688" y2="17.1784" gradientUnits="userSpaceOnUse">
<stop stop-color="#433F43" stop-opacity="0"/>
<stop offset="1" stop-color="#1A1A1A"/>
</linearGradient>
<linearGradient id="paint35_linear_496_48456" x1="10.2595" y1="1.16592" x2="15.619" y2="9.42994" gradientUnits="userSpaceOnUse">
<stop stop-color="#BA68C8"/>
<stop offset="0.2886" stop-color="#BA68C8"/>
<stop offset="0.866" stop-color="#9D00B7"/>
<stop offset="1" stop-color="#740087"/>
</linearGradient>
<linearGradient id="paint36_linear_496_48456" x1="9.62705" y1="-1.88468" x2="9.8212" y2="5.12534" gradientUnits="userSpaceOnUse">
<stop stop-color="#334C0F" stop-opacity="0"/>
<stop offset="0.3197" stop-color="#344C12" stop-opacity="0.32"/>
<stop offset="0.5654" stop-color="#374A1C" stop-opacity="0.565"/>
<stop offset="0.7856" stop-color="#3C482C" stop-opacity="0.786"/>
<stop offset="0.9909" stop-color="#444443" stop-opacity="0.991"/>
<stop offset="1" stop-color="#444444"/>
</linearGradient>
<linearGradient id="paint37_linear_496_48456" x1="15.6079" y1="-2.05029" x2="15.802" y2="4.95973" gradientUnits="userSpaceOnUse">
<stop stop-color="#334C0F" stop-opacity="0"/>
<stop offset="0.3197" stop-color="#344C12" stop-opacity="0.32"/>
<stop offset="0.5654" stop-color="#374A1C" stop-opacity="0.565"/>
<stop offset="0.7856" stop-color="#3C482C" stop-opacity="0.786"/>
<stop offset="0.9909" stop-color="#444443" stop-opacity="0.991"/>
<stop offset="1" stop-color="#444444"/>
</linearGradient>
<linearGradient id="paint38_linear_496_48456" x1="6.44581" y1="-1.28619" x2="15.69" y2="9.56809" gradientUnits="userSpaceOnUse">
<stop stop-color="#334C0F" stop-opacity="0"/>
<stop offset="0.3197" stop-color="#344C12" stop-opacity="0.32"/>
<stop offset="0.5654" stop-color="#374A1C" stop-opacity="0.565"/>
<stop offset="0.7856" stop-color="#3C482C" stop-opacity="0.786"/>
<stop offset="0.9909" stop-color="#444443" stop-opacity="0.991"/>
<stop offset="1" stop-color="#444444"/>
</linearGradient>
<linearGradient id="paint39_linear_496_48456" x1="15.5098" y1="4.56455" x2="17.3559" y2="4.56455" gradientUnits="userSpaceOnUse">
<stop stop-color="#334C0F" stop-opacity="0"/>
<stop offset="0.3197" stop-color="#344C12" stop-opacity="0.32"/>
<stop offset="0.5654" stop-color="#374A1C" stop-opacity="0.565"/>
<stop offset="0.7856" stop-color="#3C482C" stop-opacity="0.786"/>
<stop offset="0.9909" stop-color="#444443" stop-opacity="0.991"/>
<stop offset="1" stop-color="#444444"/>
</linearGradient>
<linearGradient id="paint40_linear_496_48456" x1="7.48832" y1="2.99279" x2="11.958" y2="9.77795" gradientUnits="userSpaceOnUse">
<stop stop-color="#BA68C8"/>
<stop offset="0.2886" stop-color="#BA68C8"/>
<stop offset="0.661219" stop-color="#9400AE"/>
<stop offset="1" stop-color="#9400AE"/>
</linearGradient>
<linearGradient id="paint41_linear_496_48456" x1="6.4601" y1="0.548429" x2="6.65426" y2="7.55844" gradientUnits="userSpaceOnUse">
<stop stop-color="#334C0F" stop-opacity="0"/>
<stop offset="0.3197" stop-color="#344C12" stop-opacity="0.32"/>
<stop offset="0.5654" stop-color="#374A1C" stop-opacity="0.565"/>
<stop offset="0.7856" stop-color="#3C482C" stop-opacity="0.786"/>
<stop offset="0.9909" stop-color="#444443" stop-opacity="0.991"/>
<stop offset="1" stop-color="#444444"/>
</linearGradient>
<linearGradient id="paint42_linear_496_48456" x1="12.4409" y1="0.382819" x2="12.635" y2="7.39283" gradientUnits="userSpaceOnUse">
<stop stop-color="#334C0F" stop-opacity="0"/>
<stop offset="0.3197" stop-color="#344C12" stop-opacity="0.32"/>
<stop offset="0.5654" stop-color="#374A1C" stop-opacity="0.565"/>
<stop offset="0.7856" stop-color="#3C482C" stop-opacity="0.786"/>
<stop offset="0.9909" stop-color="#444443" stop-opacity="0.991"/>
<stop offset="1" stop-color="#444444"/>
</linearGradient>
<linearGradient id="paint43_linear_496_48456" x1="4.54187" y1="1.41356" x2="11.8898" y2="10.0412" gradientUnits="userSpaceOnUse">
<stop stop-color="#334C0F" stop-opacity="0"/>
<stop offset="0.3197" stop-color="#344C12" stop-opacity="0.32"/>
<stop offset="0.5654" stop-color="#374A1C" stop-opacity="0.565"/>
<stop offset="0.7856" stop-color="#3C482C" stop-opacity="0.786"/>
<stop offset="0.9909" stop-color="#444443" stop-opacity="0.991"/>
<stop offset="1" stop-color="#444444"/>
</linearGradient>
<linearGradient id="paint44_linear_496_48456" x1="12.3429" y1="5.7811" x2="14.1889" y2="5.7811" gradientUnits="userSpaceOnUse">
<stop stop-color="#334C0F" stop-opacity="0"/>
<stop offset="0.3197" stop-color="#344C12" stop-opacity="0.32"/>
<stop offset="0.5654" stop-color="#374A1C" stop-opacity="0.565"/>
<stop offset="0.7856" stop-color="#3C482C" stop-opacity="0.786"/>
<stop offset="0.9909" stop-color="#444443" stop-opacity="0.991"/>
<stop offset="1" stop-color="#444444"/>
</linearGradient>
<clipPath id="clip0_496_48456">
<rect width="24" height="24" fill="white"/>
</clipPath>
</defs>
</svg>
