<svg width="25" height="24" viewBox="0 0 25 24" fill="none" xmlns="http://www.w3.org/2000/svg">
<g clip-path="url(#clip0_2003_95)">
<path d="M15.5939 11.0719L16.1793 10.488L16.2299 10.5102C17.1106 10.9005 18.0891 11.0139 19.0358 10.8356C19.9824 10.6573 20.8526 10.1955 21.5309 9.51155C24.3168 6.72342 25.0165 3.05442 23.1205 1.1588C21.2245 -0.736827 17.5559 -0.0374517 14.7678 2.74992C14.0837 3.42829 13.6219 4.29849 13.4436 5.24523C13.2653 6.19196 13.3788 7.17054 13.7692 8.0513L13.7913 8.10155L13.207 8.68542L15.5939 11.0719Z" fill="#5B5F79"/>
<path d="M0.99426 20.8987C0.677791 21.2152 0.5 21.6444 0.5 22.092C0.5 22.5395 0.677791 22.9688 0.99426 23.2852C1.31073 23.6017 1.73995 23.7795 2.18751 23.7795C2.63507 23.7795 3.06429 23.6017 3.38076 23.2852L11.3514 15.3146L8.96488 12.9281L0.99426 20.8987Z" fill="#5B5F79"/>
<path d="M11.1069 8.44124L11.0263 6.90374C10.9792 6.00156 10.5994 5.14887 9.96016 4.51049L5.73616 0.286116C5.61241 0.16655 5.44665 0.10037 5.27459 0.10183C5.10252 0.103291 4.93791 0.172275 4.81621 0.293924C4.69451 0.415574 4.62546 0.580156 4.62393 0.752222C4.6224 0.924289 4.68852 1.09007 4.80803 1.21387L8.52053 4.92637L7.32728 6.11962L3.61478 2.40712C3.49171 2.28404 3.32478 2.2149 3.15072 2.2149C2.97666 2.2149 2.80973 2.28404 2.68666 2.40712C2.56358 2.53019 2.49444 2.69712 2.49444 2.87118C2.49444 3.04524 2.56358 3.21216 2.68666 3.33524L6.39916 7.04774L5.20591 8.24099L1.49341 4.52849C1.36961 4.40898 1.20383 4.34286 1.03176 4.34439C0.859697 4.34592 0.695115 4.41497 0.573465 4.53667C0.451816 4.65837 0.382832 4.82298 0.381371 4.99505C0.379911 5.16711 0.446091 5.33287 0.565657 5.45662L4.78966 9.68062C5.42803 10.3198 6.28073 10.6997 7.18291 10.7467L8.72041 10.8274L21.167 23.2747C21.4836 23.5913 21.913 23.7692 22.3607 23.7692C22.8084 23.7692 23.2377 23.5913 23.5543 23.2747C23.8709 22.9582 24.0487 22.5288 24.0487 22.0811C24.0487 21.6334 23.8709 21.2041 23.5543 20.8875L11.1069 8.44124Z" fill="#5B5F79"/>
</g>
<defs>
<clipPath id="clip0_2003_95">
<rect width="24" height="24" fill="white" transform="translate(0.279297)"/>
</clipPath>
</defs>
</svg>
