<svg width="25" height="24" viewBox="0 0 25 24" fill="none" xmlns="http://www.w3.org/2000/svg">
<path fill-rule="evenodd" clip-rule="evenodd" d="M13.5293 4.81996V21.386L22.2823 18.76C23.0223 18.538 23.5293 17.857 23.5293 17.084V4.17196C23.5293 3.61896 23.2673 3.09796 22.8243 2.76796C22.3803 2.43796 21.8063 2.33696 21.2763 2.49596L13.5293 4.81996ZM12.0293 21.386V4.81996L4.2823 2.49596C3.7523 2.33696 3.1783 2.43796 2.7343 2.76796C2.2913 3.09796 2.0293 3.61896 2.0293 4.17196V17.084C2.0293 17.857 2.5363 18.538 3.2763 18.76L12.0293 21.386ZM9.4953 15.082L5.4953 13.882C5.0983 13.763 4.6803 13.988 4.5613 14.384C4.4423 14.781 4.6673 15.199 5.0633 15.318L9.0633 16.518C9.4603 16.637 9.8783 16.412 9.9973 16.016C10.1163 15.619 9.8913 15.201 9.4953 15.082ZM16.4953 16.518L20.4953 15.318C20.8913 15.199 21.1163 14.781 20.9973 14.384C20.8783 13.988 20.4603 13.763 20.0633 13.882L16.0633 15.082C15.6673 15.201 15.4423 15.619 15.5613 16.016C15.6803 16.412 16.0983 16.637 16.4953 16.518ZM16.4953 12.918L20.4953 11.718C20.8913 11.599 21.1163 11.181 20.9973 10.784C20.8783 10.388 20.4603 10.163 20.0633 10.282L16.0633 11.482C15.6673 11.601 15.4423 12.019 15.5613 12.416C15.6803 12.812 16.0983 13.037 16.4953 12.918ZM9.4953 11.482L5.4953 10.282C5.0983 10.163 4.6803 10.388 4.5613 10.784C4.4423 11.181 4.6673 11.599 5.0633 11.718L9.0633 12.918C9.4603 13.037 9.8783 12.812 9.9973 12.416C10.1163 12.019 9.8913 11.601 9.4953 11.482ZM16.4953 9.31796L20.4953 8.11796C20.8913 7.99896 21.1163 7.58096 20.9973 7.18396C20.8783 6.78796 20.4603 6.56296 20.0633 6.68196L16.0633 7.88196C15.6673 8.00096 15.4423 8.41896 15.5613 8.81596C15.6803 9.21196 16.0983 9.43696 16.4953 9.31796ZM9.4953 7.88196L5.4953 6.68196C5.0983 6.56296 4.6803 6.78796 4.5613 7.18396C4.4423 7.58096 4.6673 7.99896 5.0633 8.11796L9.0633 9.31796C9.4603 9.43696 9.8783 9.21196 9.9973 8.81596C10.1163 8.41896 9.8913 8.00096 9.4953 7.88196Z" fill="#5B5F79"/>
</svg>
