<svg width="48" height="44" viewBox="0 0 48 44" fill="none" xmlns="http://www.w3.org/2000/svg">
<path d="M1.49544 13.0504C3.08408 5.87447 7.97221 1.87775 15.5968 0.670372C21.2332 -0.22197 26.8716 -0.233271 32.4985 0.695429C40.3491 1.99105 45.0686 6.22085 46.5721 13.5052C47.7337 19.1348 47.7519 24.8244 46.5538 30.4487C44.9466 37.5749 39.9324 41.9737 32.3359 43.1766C26.6996 44.0689 21.0611 44.0802 15.4342 43.1516C7.58362 41.8559 2.84317 37.4149 1.33979 30.1306C0.118967 24.4639 0.236435 18.7383 1.49544 13.0503V13.0504Z" fill="#4599E8"/>
<path fill-rule="evenodd" clip-rule="evenodd" d="M10.1338 32.2308V13.7352C10.1338 12.7705 10.9686 11.9883 11.9984 11.9883H37.7418V13.8532H12.1244V32.2308H10.1338ZM16.0571 16.976L23.2297 23.8748C23.7174 24.3641 24.5343 24.3956 25.0633 23.9455C25.0633 23.9455 31.3072 18.7457 33.0453 17.3494C34.7833 15.9531 37.7417 16.3442 37.7417 18.4239V28.3033C37.7417 30.4725 35.865 32.2308 33.5497 32.2308H15.3167V30.3659H33.5144C34.7496 30.3659 35.7512 29.4275 35.7512 28.2701V18.8351C35.7512 18.1361 35.2334 18.2086 34.9076 18.4823L25.6282 25.9858C24.7068 26.7601 23.2935 26.7006 22.4501 25.8519L14.6025 18.2491L16.0571 16.976Z" fill="white"/>
</svg>
