<svg width="25" height="24" viewBox="0 0 25 24" fill="none" xmlns="http://www.w3.org/2000/svg">
<path d="M11.4688 15.9541L8.32728 12.8126L13.0887 8.05119L16.2302 11.1927L11.4688 15.9541Z" fill="#5B5F79"/>
<path d="M0.929291 14.8388C0.0632754 15.7049 0.0632754 17.1143 0.929338 17.9806L2.04276 19.094L1.46615 19.6705C1.04657 20.0902 0.815432 20.6481 0.815432 21.2415C0.815432 21.835 1.04662 22.3929 1.4662 22.8123C1.88573 23.232 2.44368 23.4632 3.03717 23.4632C3.62601 23.4632 4.17979 23.2356 4.59824 22.8222C4.60162 22.819 4.60495 22.8157 4.60823 22.8124L5.1847 22.236L6.29821 23.3495C6.71774 23.769 7.27565 24 7.86913 24.0001C8.46267 24.0001 9.02071 23.7689 9.44048 23.3492C9.64387 23.1457 9.79865 22.912 9.90642 22.6626L1.61549 14.3717C1.36274 14.4815 1.12996 14.638 0.929291 14.8388Z" fill="#5B5F79"/>
<path d="M23.6278 6.01969L22.5143 4.90617L23.0827 4.33772C23.0855 4.335 23.0882 4.33233 23.091 4.32956C23.9571 3.46345 23.9572 2.05402 23.0911 1.18758C22.6715 0.768 22.1136 0.536906 21.5202 0.536906C20.9268 0.536906 20.3688 0.767953 19.9491 1.18748C19.9455 1.19109 19.9419 1.1947 19.9384 1.19841L19.3725 1.76428L18.2589 0.650672C17.8394 0.231141 17.2815 0 16.6881 0C16.0946 0 15.5367 0.231141 15.1171 0.650766C14.9136 0.854391 14.7587 1.08834 14.6509 1.33781L22.9415 9.62841C23.1942 9.51867 23.427 9.36211 23.6278 9.16144C24.0474 8.74181 24.2786 8.18391 24.2786 7.59047C24.2786 6.99703 24.0474 6.43917 23.6278 6.01969Z" fill="#5B5F79"/>
<path d="M10.4378 15.9798L7.29591 12.8379L5.10867 10.6507C4.68909 10.2311 4.13119 10 3.53784 10C2.94445 10 2.38645 10.2311 1.96659 10.6508C1.76311 10.8543 1.60781 11.0879 1.5 11.3372L11.9392 21.7764C12.192 21.6666 12.4245 21.5096 12.6252 21.3089C13.0448 20.8893 13.2758 20.3314 13.2758 19.7379C13.2758 19.1444 13.0447 18.5865 12.6252 18.167L10.4378 15.9798Z" fill="#5B5F79"/>
<path d="M11.8956 1.72456C11.0296 2.59077 11.0296 4.0002 11.8956 4.86641L14.0829 7.0536L17.2249 10.1956L17.225 10.1955L19.4121 12.3826L19.4121 12.3827L19.4122 12.3828C19.8319 12.8023 20.3898 13.0333 20.9831 13.0333H20.9832C21.5765 13.0333 22.1345 12.8022 22.554 12.3827C22.7546 12.1821 22.9117 11.9497 23.0215 11.6971L12.5815 1.25708C12.3288 1.36686 12.0963 1.52389 11.8956 1.72456Z" fill="#5B5F79"/>
</svg>
