<svg width="32" height="32" viewBox="0 0 32 32" fill="none" xmlns="http://www.w3.org/2000/svg">
<rect width="32" height="32" rx="16" fill="#FAF0FF"/>
<path d="M16 10.4404V13.7704" stroke="#BA68C8" stroke-width="1.5" stroke-miterlimit="10" stroke-linecap="round"/>
<path d="M16.0199 6C12.3399 6 9.3599 8.98 9.3599 12.66V14.76C9.3599 15.44 9.0799 16.46 8.7299 17.04L7.4599 19.16C6.6799 20.47 7.2199 21.93 8.6599 22.41C13.4399 24 18.6099 24 23.3899 22.41C24.7399 21.96 25.3199 20.38 24.5899 19.16L23.3199 17.04C22.9699 16.46 22.6899 15.43 22.6899 14.76V12.66C22.6799 9 19.6799 6 16.0199 6Z" stroke="#BA68C8" stroke-width="1.5" stroke-miterlimit="10" stroke-linecap="round"/>
<path d="M19.3299 22.8203C19.3299 24.6503 17.8299 26.1503 15.9999 26.1503C15.0899 26.1503 14.2499 25.7703 13.6499 25.1703C13.0499 24.5703 12.6699 23.7303 12.6699 22.8203" stroke="#BA68C8" stroke-width="1.5" stroke-miterlimit="10"/>
</svg>
