<svg width="24" height="24" viewBox="0 0 24 24" fill="none" xmlns="http://www.w3.org/2000/svg">
<path d="M19.9668 9.99988H3.9668V17.9999C3.9668 20.9999 4.9668 21.9999 7.9668 21.9999H15.9668C18.9668 21.9999 19.9668 20.9999 19.9668 17.9999V9.99988Z" stroke="#BA68C8" stroke-miterlimit="10" stroke-linecap="round" stroke-linejoin="round"/>
<path d="M21.5005 7.00018V8.00018C21.5005 9.10018 20.9705 10.0002 19.5005 10.0002H4.50049C2.97049 10.0002 2.50049 9.10018 2.50049 8.00018V7.00018C2.50049 5.90018 2.97049 5.00018 4.50049 5.00018H19.5005C20.9705 5.00018 21.5005 5.90018 21.5005 7.00018Z" stroke="#BA68C8" stroke-miterlimit="10" stroke-linecap="round" stroke-linejoin="round"/>
<path d="M11.6403 4.99933H6.12027C5.78027 4.62933 5.79027 4.05933 6.15027 3.69933L7.57027 2.27933C7.94027 1.90933 8.55027 1.90933 8.92027 2.27933L11.6403 4.99933Z" stroke="#BA68C8" stroke-miterlimit="10" stroke-linecap="round" stroke-linejoin="round"/>
<path d="M17.8686 4.99933H12.3486L15.0686 2.27933C15.4386 1.90933 16.0486 1.90933 16.4186 2.27933L17.8386 3.69933C18.1986 4.05933 18.2086 4.62933 17.8686 4.99933Z" stroke="#BA68C8" stroke-miterlimit="10" stroke-linecap="round" stroke-linejoin="round"/>
<path d="M8.93799 9.99988V15.1399C8.93799 15.9399 9.81799 16.4099 10.488 15.9799L11.428 15.3599C11.768 15.1399 12.198 15.1399 12.528 15.3599L13.418 15.9599C14.078 16.3999 14.968 15.9299 14.968 15.1299V9.99988H8.93799Z" stroke="#BA68C8" stroke-miterlimit="10" stroke-linecap="round" stroke-linejoin="round"/>
</svg>
