<svg width="24" height="24" viewBox="0 0 24 24" fill="none" xmlns="http://www.w3.org/2000/svg">
<path d="M5.00098 9.99902H7.00098C9.00098 9.99902 10.001 8.99902 10.001 6.99902V4.99902C10.001 2.99902 9.00098 1.99902 7.00098 1.99902H5.00098C3.00098 1.99902 2.00098 2.99902 2.00098 4.99902V6.99902C2.00098 8.99902 3.00098 9.99902 5.00098 9.99902Z" stroke="#BA68C8" stroke-width="1.5" stroke-miterlimit="10" stroke-linecap="round" stroke-linejoin="round"/>
<path d="M17.001 9.99902H19.001C21.001 9.99902 22.001 8.99902 22.001 6.99902V4.99902C22.001 2.99902 21.001 1.99902 19.001 1.99902H17.001C15.001 1.99902 14.001 2.99902 14.001 4.99902V6.99902C14.001 8.99902 15.001 9.99902 17.001 9.99902Z" stroke="#BA68C8" stroke-width="1.5" stroke-miterlimit="10" stroke-linecap="round" stroke-linejoin="round"/>
<path d="M17.001 21.999H19.001C21.001 21.999 22.001 20.999 22.001 18.999V16.999C22.001 14.999 21.001 13.999 19.001 13.999H17.001C15.001 13.999 14.001 14.999 14.001 16.999V18.999C14.001 20.999 15.001 21.999 17.001 21.999Z" stroke="#BA68C8" stroke-width="1.5" stroke-miterlimit="10" stroke-linecap="round" stroke-linejoin="round"/>
<path d="M5.00098 21.999H7.00098C9.00098 21.999 10.001 20.999 10.001 18.999V16.999C10.001 14.999 9.00098 13.999 7.00098 13.999H5.00098C3.00098 13.999 2.00098 14.999 2.00098 16.999V18.999C2.00098 20.999 3.00098 21.999 5.00098 21.999Z" stroke="#BA68C8" stroke-width="1.5" stroke-miterlimit="10" stroke-linecap="round" stroke-linejoin="round"/>
</svg>
