<svg width="25" height="25" viewBox="0 0 25 25" fill="none" xmlns="http://www.w3.org/2000/svg">
<path d="M24.5054 12.7874C24.5054 11.9377 24.4365 11.0835 24.2895 10.2476H12.4995V15.0609H19.2511C18.9709 16.6133 18.0707 17.9866 16.7525 18.8592V21.9824H20.7805C23.1459 19.8054 24.5054 16.5903 24.5054 12.7874Z" fill="#4285F4"/>
<path d="M12.4995 24.9999C15.8707 24.9999 18.7137 23.893 20.7851 21.9823L16.7571 18.8592C15.6365 19.6216 14.1897 20.0533 12.5041 20.0533C9.24316 20.0533 6.47823 17.8533 5.48616 14.8955H1.32959V18.1151C3.45151 22.336 7.77343 24.9999 12.4995 24.9999Z" fill="#34A853"/>
<path d="M5.48162 14.8956C4.95803 13.3432 4.95803 11.6622 5.48162 10.1098V6.89014H1.32964C-0.443215 10.4221 -0.443215 14.5832 1.32964 18.1152L5.48162 14.8956Z" fill="#FBBC04"/>
<path d="M12.4995 4.94739C14.2816 4.91984 16.0039 5.5904 17.2945 6.8213L20.8632 3.25261C18.6035 1.1307 15.6043 -0.0359009 12.4995 0.000842332C7.77343 0.000842332 3.45151 2.66472 1.32959 6.89019L5.48157 10.1098C6.46904 7.14739 9.23856 4.94739 12.4995 4.94739Z" fill="#EA4335"/>
</svg>
