<svg width="32" height="32" viewBox="0 0 32 32" fill="none" xmlns="http://www.w3.org/2000/svg">
<path d="M27.7731 10.68L19.0398 3.69338C17.3331 2.33338 14.6665 2.32004 12.9731 3.68004L4.23979 10.68C2.98645 11.68 2.22645 13.68 2.49312 15.2534L4.17312 25.3067C4.55979 27.56 6.65312 29.3334 8.93312 29.3334H23.0665C25.3198 29.3334 27.4531 27.52 27.8398 25.2934L29.5198 15.24C29.7598 13.68 28.9998 11.68 27.7731 10.68ZM16.9998 24C16.9998 24.5467 16.5465 25 15.9998 25C15.4531 25 14.9998 24.5467 14.9998 24V20C14.9998 19.4534 15.4531 19 15.9998 19C16.5465 19 16.9998 19.4534 16.9998 20V24Z" fill="white"/>
</svg>
