<svg width="25" height="24" viewBox="0 0 25 24" fill="none" xmlns="http://www.w3.org/2000/svg">
<g clip-path="url(#clip0_284_281)">
<path d="M12.8331 11.8898C10.4016 14.321 10.2281 18.1545 12.3112 20.7862L21.7291 11.3686C19.0972 9.28539 15.2643 9.45892 12.8331 11.8898Z" fill="#5B5F79"/>
<path d="M22.8373 12.4763L13.4194 21.894C16.0516 23.9778 19.8846 23.8043 22.3158 21.3724C24.747 18.9415 24.9205 15.108 22.8373 12.4763Z" fill="#5B5F79"/>
<path d="M13.7746 1.22299C10.7986 -0.166433 7.25939 1.11963 5.86997 4.09591L3.92822 8.25508L11.0298 11.5707C11.2436 11.2951 11.4756 11.0318 11.7256 10.7819C12.5146 9.99297 13.4355 9.38182 14.4626 8.96533C15.2561 8.64354 16.0853 8.44915 16.9354 8.38422C17.8136 5.58429 16.5061 2.49832 13.7746 1.22299ZM12.1809 4.63633C11.0916 4.12793 9.79172 4.60033 9.28332 5.68929L7.86375 5.02666C8.7375 3.15485 10.9714 2.34302 12.8434 3.21672L12.1809 4.63633Z" fill="#5B5F79"/>
<path d="M9.90823 19.7431C9.50623 18.7517 9.30242 17.7047 9.30246 16.6311C9.30246 15.5574 9.50637 14.5104 9.90842 13.5191C9.99312 13.3103 10.0863 13.106 10.187 12.9062L3.26562 9.67468L0.838855 14.8727C-0.550192 17.849 0.735871 21.3875 3.71173 22.7769C6.17914 23.9291 9.03336 23.2416 10.7287 21.2767C10.4028 20.7975 10.1281 20.2853 9.90823 19.7431Z" fill="#5B5F79"/>
</g>
<defs>
<clipPath id="clip0_284_281">
<rect width="24" height="24" fill="white" transform="translate(0.279297)"/>
</clipPath>
</defs>
</svg>
