<svg width="24" height="24" viewBox="0 0 24 24" fill="none" xmlns="http://www.w3.org/2000/svg">
<rect width="24" height="24" rx="12" fill="#FAF0FF"/>
<path d="M9.8584 13.359C9.8584 14.1115 10.4359 14.7182 11.1534 14.7182H12.6176C13.2417 14.7182 13.7492 14.1873 13.7492 13.534C13.7492 12.8223 13.4401 12.5715 12.9792 12.4082L10.6284 11.5915C10.1676 11.4282 9.8584 11.1773 9.8584 10.4657C9.8584 9.81233 10.3659 9.28149 10.9901 9.28149H12.4542C13.1717 9.28149 13.7492 9.88816 13.7492 10.6407" stroke="#BA68C8" stroke-linecap="round" stroke-linejoin="round"/>
<path d="M11.7998 8.5V15.5" stroke="#BA68C8" stroke-linecap="round" stroke-linejoin="round"/>
<path d="M11.8001 17.8334C15.0218 17.8334 17.6335 15.2217 17.6335 12.0001C17.6335 8.77842 15.0218 6.16675 11.8001 6.16675C8.57847 6.16675 5.9668 8.77842 5.9668 12.0001C5.9668 15.2217 8.57847 17.8334 11.8001 17.8334Z" stroke="#BA68C8" stroke-linecap="round" stroke-linejoin="round"/>
</svg>
