<svg width="24" height="24" viewBox="0 0 24 24" fill="none" xmlns="http://www.w3.org/2000/svg">
<rect width="24" height="24" rx="12" fill="#FAF0FF"/>
<path d="M15.6238 12.9299C15.3718 13.1759 15.2278 13.5299 15.2638 13.9079C15.3178 14.5559 15.9118 15.0299 16.5598 15.0299H17.6998V15.7439C17.6998 16.9859 16.6858 18 15.4438 18H8.5558C7.3138 18 6.2998 16.9859 6.2998 15.7439V11.706C6.2998 10.464 7.3138 9.44995 8.5558 9.44995H15.4438C16.6858 9.44995 17.6998 10.464 17.6998 11.706V12.57H16.4878C16.1518 12.57 15.8458 12.7019 15.6238 12.9299Z" stroke="#BA68C8" stroke-width="0.9" stroke-linecap="round" stroke-linejoin="round"/>
<path d="M6.2998 12.246V9.50401C6.2998 8.79001 6.7378 8.15399 7.4038 7.90199L12.1678 6.10199C12.9118 5.81999 13.7098 6.372 13.7098 7.17V9.45" stroke="#BA68C8" stroke-width="0.9" stroke-linecap="round" stroke-linejoin="round"/>
<path d="M18.3353 13.182V14.4181C18.3353 14.7481 18.0713 15.0181 17.7353 15.0301H16.5593C15.9113 15.0301 15.3173 14.5561 15.2633 13.9081C15.2273 13.5301 15.3713 13.1761 15.6233 12.9301C15.8453 12.7021 16.1513 12.5701 16.4873 12.5701H17.7353C18.0713 12.5821 18.3353 12.852 18.3353 13.182Z" stroke="#BA68C8" stroke-width="0.9" stroke-linecap="round" stroke-linejoin="round"/>
<path d="M9 12H13.2" stroke="#BA68C8" stroke-width="0.9" stroke-linecap="round" stroke-linejoin="round"/>
</svg>
