<svg width="390" height="12" viewBox="0 0 390 12" fill="none" xmlns="http://www.w3.org/2000/svg">
<path d="M352.82 10.1504C347.753 10.1655 341.602 10.1504 335.998 8.6596C334.753 8.3283 333.54 8.59937 332.38 8.86541C329.75 9.46777 327.163 10.1053 324.49 10.6574C313.389 12.9514 303.148 12.3641 294.173 8.44376C291.94 7.46492 290.512 7.45488 288.097 8.36344C277.522 12.324 268.784 12.5398 257.125 9.30212C254.86 8.67466 252.541 8.07732 250.426 7.34947C246.916 6.13973 243.47 6.22004 239.766 7.13363C235.096 8.27812 230.244 9.21177 225.198 9.94966C215.966 11.305 207.904 10.3864 200.7 7.47496C200.11 7.23402 199.476 7.01817 198.929 6.75715C196.911 5.77329 195.161 5.65281 192.767 6.68687C187.71 8.87043 181.978 10.4316 174.656 10.1856C171.371 10.0752 168.354 9.59327 165.402 9.00095C162.439 8.40863 159.605 7.67073 156.986 6.7973C148.032 3.81059 148.902 4.18204 139.949 6.58647C131.919 8.74493 123.513 9.91453 114.195 9.07624C108.269 8.54416 103.384 7.07339 98.8537 5.28136C94.3341 3.49937 94.1302 3.52446 88.8484 4.84966C81.8274 6.61659 74.581 7.99198 66.3899 7.95182C58.6927 7.91669 52.1119 6.78225 46.7979 4.08667C42.9009 2.11394 42.74 2.12397 38.1345 3.72023C30.6305 6.32043 22.8366 8.64957 13.4753 9.4477C9.55693 9.78401 5.52041 9.94465 1.70935 9.10636C0.839789 8.91561 -0.28739 8.69474 0.0668769 8.14257C0.388938 7.65064 1.58059 7.78618 2.37501 7.84641C10.609 8.46384 17.6514 6.94288 24.565 5.18599C28.9558 4.0666 32.6917 2.50547 36.7818 1.19533C41.9885 -0.476224 45.2198 -0.471205 49.4066 1.6973C57.4474 5.86364 67.0448 5.8034 77.3186 4.26738C81.237 3.68007 84.7582 2.67614 88.3867 1.78264C92.9707 0.653212 97.1683 0.783722 101.054 2.44022C101.774 2.74642 102.579 3.01246 103.309 3.31364C112.52 7.09848 122.686 7.43982 133.497 5.0655C136.406 4.428 139.144 3.62988 141.935 2.87693C146.712 1.59691 151.296 1.60193 155.923 3.10282C160.088 4.4481 164.275 5.79337 169.031 6.67683C175.064 7.80124 180.668 7.57536 185.789 5.62772C187.227 5.08058 188.634 4.51836 190.029 3.95113C193.98 2.36491 197.157 2.2846 201.376 3.68509C203.363 4.34267 205.306 5.03539 207.324 5.67791C211.135 6.89769 215.279 7.29425 219.852 6.84248C223.513 6.48106 226.98 5.90881 230.351 5.17594C232.38 4.73421 234.441 4.30753 236.417 3.81058C243.148 2.11393 249.471 2.44021 255.644 4.47318C258.349 5.36167 261.28 6.10458 264.189 6.84248C269.975 8.31324 275.612 8.11247 281.001 6.36562C282.847 5.76827 284.629 5.13076 286.497 4.54848C289.61 3.57968 292.713 3.58972 295.719 4.65891C297.039 5.12574 298.338 5.60764 299.573 6.12467C305.102 8.42368 311.36 8.97083 318.36 7.92673C322.106 7.36955 325.531 6.48608 328.956 5.6227C332.852 4.63382 336.588 4.45813 340.582 5.56246C343.878 6.47103 347.732 6.38569 351.414 6.49111C361.945 6.79229 372.455 6.19494 382.976 6.25016C384.726 6.2602 386.476 6.36058 388.215 6.43086C388.988 6.46098 389.932 6.45094 389.997 6.93785C390.061 7.39464 389.127 7.52516 388.408 7.62054C385.499 7.99701 382.579 8.36846 379.637 8.68972C371.156 9.6033 362.589 10.2006 352.767 10.1504H352.82Z" fill="url(#paint0_linear_474_35402)"/>
<defs>
<linearGradient id="paint0_linear_474_35402" x1="382.388" y1="0.622659" x2="148.732" y2="-175.099" gradientUnits="userSpaceOnUse">
<stop offset="0.0865385" stop-color="#EC0BE9"/>
<stop offset="0.286811" stop-color="#B10AF4"/>
<stop offset="0.6664" stop-color="#645CFD"/>
<stop offset="1" stop-color="#47BDF9"/>
</linearGradient>
</defs>
</svg>
