<svg width="24" height="24" viewBox="0 0 24 24" fill="none" xmlns="http://www.w3.org/2000/svg">
<rect width="24" height="24" rx="12" fill="#FAF0FF"/>
<path d="M6.70215 9.26392L12.0001 12.3299L17.2621 9.28192" stroke="#BA68C8" stroke-width="0.9" stroke-linecap="round" stroke-linejoin="round"/>
<path d="M12 17.766V12.324" stroke="#BA68C8" stroke-width="0.9" stroke-linecap="round" stroke-linejoin="round"/>
<path d="M10.7574 6.28802L7.5534 8.06402C6.8274 8.46602 6.2334 9.47402 6.2334 10.302V13.692C6.2334 14.52 6.8274 15.528 7.5534 15.93L10.7574 17.712C11.4414 18.09 12.5634 18.09 13.2474 17.712L16.4514 15.93C17.1774 15.528 17.7714 14.52 17.7714 13.692V10.302C17.7714 9.47402 17.1774 8.46602 16.4514 8.06402L13.2474 6.28202C12.5574 5.90402 11.4414 5.90402 10.7574 6.28802Z" stroke="#BA68C8" stroke-width="0.9" stroke-linecap="round" stroke-linejoin="round"/>
</svg>
