<svg width="15" height="16" viewBox="0 0 15 16" fill="none" xmlns="http://www.w3.org/2000/svg">
<g clip-path="url(#clip0_1096_213)">
<path d="M7.5 0.5C3.35476 0.5 0 3.85438 0 8C0 12.1452 3.35438 15.5 7.5 15.5C11.6452 15.5 15 12.1456 15 8C15 3.85476 11.6456 0.5 7.5 0.5ZM7.27808 11.5103C6.85356 11.5103 6.52778 11.1549 6.52778 10.7501C6.52778 10.3355 6.86344 9.98999 7.27808 9.98999C7.69274 9.98999 8.03821 10.3355 8.03821 10.7502C8.03821 11.1549 7.70256 11.5103 7.27808 11.5103ZM8.40349 7.67C7.86053 8.09451 7.85062 8.39067 7.85062 8.90401C7.85062 9.09163 7.75189 9.30881 7.26817 9.30881C6.86338 9.30881 6.72521 9.16071 6.72521 8.64737C6.72521 7.79835 7.10036 7.39358 7.38665 7.14679C7.71243 6.87034 8.26529 6.56434 8.26529 6.03125C8.26529 5.57709 7.8704 5.35991 7.37678 5.35991C6.36981 5.35991 6.58702 6.12011 6.05388 6.12011C5.78733 6.12011 5.46155 5.94236 5.46155 5.55737C5.46155 5.02429 6.07362 4.23447 7.4064 4.23447C8.67003 4.23447 9.50918 4.93543 9.50918 5.86341C9.50918 6.79139 8.67003 7.4627 8.40349 7.67Z" fill="#406039"/>
</g>
<defs>
<clipPath id="clip0_1096_213">
<rect width="15" height="15" fill="white" transform="translate(0 0.5)"/>
</clipPath>
</defs>
</svg>
