<svg width="24" height="22" viewBox="0 0 24 22" fill="none" xmlns="http://www.w3.org/2000/svg">
<path d="M21.4925 6.56714H0.477612C0.213834 6.56714 0 6.78097 0 7.04475V20.7164C0 20.9802 0.213834 21.194 0.477612 21.194H21.4925C21.7563 21.194 21.9701 20.9802 21.9701 20.7164V7.04475C21.9701 6.78097 21.7563 6.56714 21.4925 6.56714Z" fill="url(#paint0_linear_496_48559)"/>
<path d="M10.0297 9.55225H3.58197C3.35117 9.55225 3.16406 9.73935 3.16406 9.97016V12C3.16406 12.2308 3.35117 12.4179 3.58197 12.4179H10.0297C10.2605 12.4179 10.4476 12.2308 10.4476 12V9.97016C10.4476 9.73935 10.2605 9.55225 10.0297 9.55225Z" fill="#E5FFF1"/>
<path d="M5.37341 17.0149H3.64207C3.27937 17.0149 2.98535 17.3089 2.98535 17.6716C2.98535 18.0343 3.27937 18.3283 3.64207 18.3283H5.37341C5.73611 18.3283 6.03013 18.0343 6.03013 17.6716C6.03013 17.3089 5.73611 17.0149 5.37341 17.0149Z" fill="#E5FFF1"/>
<path d="M9.79151 17.0149H8.00047C7.63777 17.0149 7.34375 17.3089 7.34375 17.6716C7.34375 18.0343 7.63777 18.3283 8.00047 18.3283H9.79151C10.1542 18.3283 10.4482 18.0343 10.4482 17.6716C10.4482 17.3089 10.1542 17.0149 9.79151 17.0149Z" fill="#E5FFF1"/>
<path d="M14.0895 17.0149H12.2387C11.8761 17.0149 11.582 17.3089 11.582 17.6716C11.582 18.0343 11.8761 18.3283 12.2387 18.3283H14.0895C14.4522 18.3283 14.7462 18.0343 14.7462 17.6716C14.7462 17.3089 14.4522 17.0149 14.0895 17.0149Z" fill="#E5FFF1"/>
<path d="M18.3881 17.0149H16.6567C16.294 17.0149 16 17.3089 16 17.6716C16 18.0343 16.294 18.3283 16.6567 18.3283H18.3881C18.7508 18.3283 19.0448 18.0343 19.0448 17.6716C19.0448 17.3089 18.7508 17.0149 18.3881 17.0149Z" fill="#E5FFF1"/>
<path d="M18.7756 10.5075C21.6607 10.5075 23.9995 8.15529 23.9995 5.25373C23.9995 2.35218 21.6607 0 18.7756 0C15.8906 0 13.5518 2.35218 13.5518 5.25373C13.5518 8.15529 15.8906 10.5075 18.7756 10.5075Z" fill="#FFC7C7"/>
<path d="M18.7505 7.95543C19.5193 7.95543 20.1425 7.58215 20.1425 7.12169C20.1425 6.66124 19.5193 6.28796 18.7505 6.28796C17.9816 6.28796 17.3584 6.66124 17.3584 7.12169C17.3584 7.58215 17.9816 7.95543 18.7505 7.95543Z" fill="#FFACAC"/>
<path d="M19 2.59706C18.4718 2.59551 17.5276 2.96413 17.1527 3.36475C16.7778 3.76537 16.5026 4.0283 16.5 4.59706C16.5 6.0418 19 6.59705 19 6.59705C19 6.59705 21.5 5.98261 21.5 4.59706C21.4973 4.0283 20.9727 3.44441 20.5 3.09705C20.0156 2.74108 19.5282 2.59551 19 2.59706ZM19 6.07839C18.7489 6.07628 18.5039 5.99417 18.2961 5.84241C18.0882 5.69064 17.9267 5.47602 17.8319 5.22558C17.7372 4.97515 17.7134 4.70011 17.7636 4.43514C17.8138 4.17017 17.9357 3.92713 18.1139 3.73664C18.2922 3.54616 18.5188 3.41676 18.7653 3.36475C19.0117 3.31275 19.267 3.34046 19.4988 3.44441C19.7307 3.54836 19.9287 3.72388 20.0681 3.94886C20.2074 4.17383 20.2818 4.43819 20.2818 4.70862C20.2812 4.88919 20.2475 5.06786 20.1828 5.23442C20.118 5.40098 20.0234 5.55218 19.9044 5.67937C19.7853 5.80657 19.6442 5.90727 19.489 5.97573C19.3339 6.0442 19.1677 6.07908 19 6.07839Z" fill="#C60808"/>
<defs>
<linearGradient id="paint0_linear_496_48559" x1="10.9851" y1="6.56714" x2="10.9851" y2="21.194" gradientUnits="userSpaceOnUse">
<stop stop-color="#FF8282"/>
<stop offset="1" stop-color="#C60808"/>
</linearGradient>
</defs>
</svg>
