<svg width="24" height="24" viewBox="0 0 24 24" fill="none" xmlns="http://www.w3.org/2000/svg">
<g clip-path="url(#clip0_496_48541)">
<path fill-rule="evenodd" clip-rule="evenodd" d="M23.9993 19.1652V19.1154C23.9944 18.9753 23.9477 18.8399 23.8651 18.7266L22.4368 16.7597L23.8651 14.7933C23.948 14.6794 23.9948 14.5432 23.9993 14.4023V14.356C23.9948 14.216 23.9484 14.0805 23.8662 13.967L22.4368 12L23.8662 10.0331C23.9477 9.92056 23.994 9.7864 23.9993 9.64754V9.59265C23.994 9.45368 23.9477 9.31939 23.8662 9.20669L22.4368 7.24033L23.8651 5.27345C23.9477 5.16019 23.9944 5.0248 23.9993 4.88472V4.83484C23.9928 4.6529 23.916 4.4806 23.785 4.35417C23.654 4.22775 23.479 4.15706 23.297 4.15698H2.53988C1.86641 4.1579 1.2208 4.42589 0.744661 4.90217C0.26852 5.37846 0.000719286 6.02414 0 6.69761V17.3025C0.000719286 17.9759 0.26852 18.6216 0.744661 19.0979C1.2208 19.5742 1.86641 19.8422 2.53988 19.8431H23.297C23.479 19.843 23.654 19.7723 23.785 19.6459C23.916 19.5195 23.9928 19.3472 23.9993 19.1652ZM13.4221 6.40314C14.5291 6.40302 15.6112 6.73117 16.5317 7.34609C17.4522 7.961 18.1697 8.83508 18.5934 9.85776C19.0171 10.8804 19.128 12.0058 18.9121 13.0915C18.6962 14.1773 18.1632 15.1746 17.3805 15.9574C16.5978 16.7402 15.6005 17.2733 14.5148 17.4893C13.4291 17.7053 12.3037 17.5945 11.281 17.1709C10.2583 16.7473 9.38414 16.0299 8.76912 15.1095C8.1541 14.1891 7.82583 13.107 7.82583 12C7.82752 10.5163 8.41764 9.09374 9.46676 8.0445C10.5159 6.99527 11.9383 6.40499 13.4221 6.40314ZM20.9987 12.4135L22.4271 14.3799L20.9987 16.3467C20.9113 16.4667 20.8642 16.6114 20.8642 16.7599C20.8642 16.9084 20.9113 17.0531 20.9987 17.1732L21.917 18.4369H6.30834V5.56314H21.917L20.9987 6.82684C20.9113 6.9469 20.8642 7.09158 20.8642 7.24009C20.8642 7.3886 20.9113 7.53328 20.9987 7.65334L22.4271 9.62017L20.9987 11.5865C20.9113 11.7067 20.8642 11.8514 20.8642 12C20.8642 12.1486 20.9113 12.2934 20.9987 12.4135ZM13.4876 12.7045C13.4575 12.7031 13.4286 12.7027 13.3986 12.7022C13.3309 12.7013 13.2536 12.6999 13.1623 12.691C11.9412 12.5747 11.342 11.6663 11.3817 10.8295C11.4139 10.149 11.8778 9.46272 12.7198 9.21423V8.97334C12.7175 8.87958 12.734 8.78632 12.7683 8.69902C12.8026 8.61173 12.854 8.53219 12.9195 8.46506C12.985 8.39794 13.0633 8.3446 13.1497 8.30818C13.2361 8.27176 13.3289 8.253 13.4227 8.253C13.5165 8.253 13.6094 8.27176 13.6958 8.30818C13.7822 8.3446 13.8605 8.39794 13.926 8.46506C13.9915 8.53219 14.0429 8.61173 14.0772 8.69902C14.1115 8.78632 14.1279 8.87958 14.1256 8.97334V9.22131C14.8387 9.43919 15.3682 9.98069 15.4498 10.6481C15.4726 10.8331 15.421 11.0196 15.3063 11.1666C15.1917 11.3135 15.0233 11.4089 14.8383 11.4317C14.6533 11.4545 14.4668 11.4029 14.3199 11.2882C14.1729 11.1735 14.0776 11.0052 14.0548 10.8202C14.044 10.7316 13.8153 10.5235 13.4222 10.5235C13.0463 10.5235 12.7972 10.6697 12.7864 10.8961C12.7768 11.1056 12.9765 11.2608 13.2955 11.2912C13.333 11.2945 13.3728 11.2955 13.4243 11.2965C13.4662 11.2969 13.5092 11.2979 13.5532 11.2997C14.8344 11.3592 15.4842 12.2653 15.4648 13.1293C15.4487 13.8296 14.988 14.5364 14.1256 14.7872V15.0267C14.1279 15.1204 14.1115 15.2137 14.0772 15.301C14.0429 15.3883 13.9915 15.4678 13.926 15.535C13.8605 15.6021 13.7822 15.6554 13.6958 15.6919C13.6094 15.7283 13.5165 15.747 13.4227 15.747C13.3289 15.747 13.2361 15.7283 13.1497 15.6919C13.0633 15.6554 12.985 15.6021 12.9195 15.535C12.854 15.4678 12.8026 15.3883 12.7683 15.301C12.734 15.2137 12.7175 15.1204 12.7198 15.0267V14.7793C12.0003 14.5603 11.4698 14.0133 11.3925 13.3388C11.382 13.2471 11.3896 13.1542 11.415 13.0654C11.4404 12.9766 11.4831 12.8937 11.5405 12.8214C11.598 12.7491 11.6691 12.6888 11.7498 12.644C11.8306 12.5992 11.9193 12.5707 12.0111 12.5602C12.1028 12.5497 12.1957 12.5574 12.2845 12.5828C12.3733 12.6082 12.4562 12.6509 12.5285 12.7083C12.6008 12.7658 12.6611 12.8369 12.7059 12.9176C12.7507 12.9984 12.7792 13.0871 12.7897 13.1789C12.8004 13.2679 13.0281 13.4766 13.4222 13.4766C13.8035 13.4766 14.0537 13.3275 14.059 13.0969C14.0643 12.8747 13.8398 12.721 13.4876 12.7045Z" fill="#FF9800"/>
</g>
<defs>
<clipPath id="clip0_496_48541">
<rect width="24" height="24" fill="white"/>
</clipPath>
</defs>
</svg>
