<svg width="60" height="60" viewBox="0 0 60 60" fill="none" xmlns="http://www.w3.org/2000/svg">
<g clip-path="url(#clip0_1096_136)">
<path d="M60 30C60 46.5688 46.5688 60 30 60C13.4312 60 0 46.5688 0 30C0 13.4312 13.4312 0 30 0C46.5688 0 60 13.4312 60 30Z" fill="#74DA60"/>
<path d="M27.8366 50.2725C30.3122 47.9265 31.4099 44.6855 31.4099 44.6855L27.42 41.2981C27.42 41.2981 22.5174 31.8796 22.5476 31.9034C11.6016 19.1743 19.8651 1.9162 19.9585 1.72165C8.32947 5.85251 0 16.9542 0 30C0 45.4408 11.6679 58.1575 26.6666 59.8169C24.7124 56.857 25.1578 52.8117 27.8366 50.2725Z" fill="#00CE00"/>
<path d="M28.1662 46.1256C27.2314 46.1256 26.2916 45.8267 25.4997 45.2156L11.3576 34.3066C9.44685 32.8331 9.09254 30.0893 10.5665 28.1786C12.0401 26.2683 14.7839 25.914 16.6946 27.3875L27.6361 35.8282L42.7322 19.1208C44.35 17.3305 47.1126 17.1904 48.9033 18.8086C50.6937 20.4259 50.8337 23.1889 49.2155 24.9792L31.4099 44.6855C30.5511 45.6358 29.3628 46.1256 28.1662 46.1256Z" fill="#FFFCDC"/>
</g>
<defs>
<clipPath id="clip0_1096_136">
<rect width="60" height="60" fill="white"/>
</clipPath>
</defs>
</svg>
