<svg width="24" height="24" viewBox="0 0 24 24" fill="none" xmlns="http://www.w3.org/2000/svg">
<path d="M22.4405 12.7994L7.8977 20.8031C7.10043 21.2418 6.09842 20.9512 5.65964 20.154L1.22793 12.1015C0.789147 11.3042 1.07976 10.3022 1.87703 9.8634L16.4198 1.85976C17.2171 1.42098 18.2191 1.7116 18.6579 2.50887L23.0896 10.5614C23.5284 11.3586 23.2377 12.3607 22.4405 12.7994Z" fill="#FEBC1F"/>
<path d="M22.1231 12.2223L7.58032 20.2259C6.78305 20.6647 5.78103 20.3741 5.34225 19.5768L0.910543 11.5243C0.471764 10.727 0.762378 9.72503 1.55965 9.28625L16.1024 1.28261C16.8997 0.843834 17.9017 1.13445 18.3405 1.93172L22.7722 9.98422C23.211 10.7815 22.9204 11.7835 22.1231 12.2223Z" fill="#FFD475"/>
<path d="M16.1024 1.28287L1.55965 9.28653C0.762376 9.72531 0.471768 10.7273 0.910538 11.5246L5.34225 19.5771C5.34225 19.5771 1.21278 11.6797 17.5727 1.22562C17.1167 1.02074 16.5741 1.02328 16.1024 1.28287Z" fill="#FEBC1F"/>
<path d="M2.21284 12.5118L2.76934 13.5229C2.90962 13.7778 3.22997 13.8707 3.48485 13.7305L18.8264 5.28719C19.0813 5.14691 19.1742 4.82656 19.034 4.57167L18.4775 3.56049C18.3372 3.3056 18.0168 3.21269 17.7619 3.35297L2.42036 11.7962C2.16547 11.9365 2.07256 12.2569 2.21284 12.5118Z" fill="#1D2943"/>
<path d="M2.05854 12.2316L2.61504 13.2428C2.75532 13.4977 3.07567 13.5906 3.33056 13.4503L18.6721 5.00703C18.927 4.86676 19.0199 4.54641 18.8797 4.29152L18.3232 3.28034C18.1829 3.02545 17.8625 2.93254 17.6076 3.07282L2.26606 11.5161C2.01117 11.6564 1.91826 11.9767 2.05854 12.2316Z" fill="#4C5C75"/>
<path d="M19.811 22.9219L3.21125 22.9219C2.30121 22.9219 1.56348 22.1842 1.56348 21.2742L1.56348 12.0827C1.56348 11.1727 2.30121 10.4349 3.21124 10.4349L19.811 10.4349C20.721 10.4349 21.4587 11.1727 21.4587 12.0827L21.4587 21.2742C21.4587 22.1842 20.721 22.9219 19.811 22.9219Z" fill="#5094FF"/>
<path d="M3.21124 22.2631L19.811 22.2631C20.721 22.2631 21.4587 21.5254 21.4587 20.6153L21.4587 11.4239C21.4587 10.5139 20.721 9.77613 19.811 9.77613L3.21125 9.77612C2.30121 9.77612 1.56348 10.5139 1.56348 11.4239L1.56348 20.6153C1.56348 21.5254 2.30121 22.2631 3.21124 22.2631Z" fill="#57B3FE"/>
<path d="M3.2112 9.77612L19.8109 9.77615C20.721 9.77615 21.4587 10.5139 21.4587 11.4239L21.4587 20.6154C21.4587 20.6154 21.2687 11.7055 1.89551 10.4349C2.19619 10.0355 2.6728 9.77612 3.2112 9.77612Z" fill="#5094FF"/>
<path d="M20.1673 19.3058V19.5615H20.1639C20.1706 19.9074 19.8821 20.1979 19.5343 20.1979L17.8625 20.1979C17.5209 20.1979 17.2261 19.9127 17.2329 19.5615H17.2295V19.3058H17.2703C17.369 19.0574 17.6379 18.8872 17.9203 18.8872L19.4765 18.8872C19.7589 18.8872 20.0278 19.0574 20.1265 19.3058H20.1673Z" fill="#E3E7F0"/>
<path d="M19.5332 19.944L17.9171 19.9441C17.5915 19.9441 17.2838 19.723 17.238 19.4006C17.1824 19.008 17.486 18.6712 17.8679 18.6712L19.4777 18.6711C19.823 18.6711 20.1445 18.9217 20.1655 19.2664C20.1889 19.6489 19.8864 19.944 19.5332 19.944Z" fill="white"/>
<path d="M15.3753 19.3058V19.5615H15.3719C15.3786 19.9074 15.0901 20.1979 14.7423 20.1979L13.0705 20.1979C12.7289 20.1979 12.4341 19.9127 12.4409 19.5615H12.4375V19.3058H12.4783C12.577 19.0574 12.8459 18.8872 13.1283 18.8872L14.6845 18.8872C14.9669 18.8872 15.2358 19.0574 15.3345 19.3058H15.3753Z" fill="#E3E7F0"/>
<path d="M14.7412 19.944L13.1251 19.9441C12.7995 19.9441 12.4918 19.723 12.4461 19.4006C12.3904 19.008 12.694 18.6712 13.0759 18.6712L14.6857 18.6711C15.031 18.6711 15.3525 18.9217 15.3736 19.2664C15.3969 19.6489 15.0944 19.944 14.7412 19.944Z" fill="white"/>
<path d="M10.5843 19.3058V19.5615H10.5809C10.5876 19.9074 10.2991 20.1979 9.95133 20.1979H8.27947C7.93788 20.1979 7.64313 19.9127 7.64989 19.5615H7.64648V19.3058H7.68732C7.78603 19.0574 8.05489 18.8872 8.3373 18.8872H9.89346C10.1759 18.8872 10.4448 19.0574 10.5435 19.3058H10.5843Z" fill="#E3E7F0"/>
<path d="M9.9502 19.944L8.33407 19.9441C8.00846 19.9441 7.70075 19.723 7.65504 19.4006C7.59938 19.008 7.90301 18.6712 8.28488 18.6712L9.89465 18.6711C10.2399 18.6711 10.5615 18.9217 10.5825 19.2664C10.6059 19.6489 10.3034 19.944 9.9502 19.944Z" fill="white"/>
<path d="M5.79233 19.3058V19.5615H5.78892C5.79558 19.9074 5.5071 20.1979 5.15934 20.1979L3.48748 20.1979C3.14589 20.1979 2.85114 19.9127 2.8579 19.5615H2.85449V19.3058H2.89533C2.99403 19.0574 3.2629 18.8872 3.54531 18.8872L5.10147 18.8872C5.38392 18.8872 5.65279 19.0574 5.75149 19.3058H5.79233Z" fill="#E3E7F0"/>
<path d="M5.15821 19.944L3.54208 19.9441C3.21646 19.9441 2.90876 19.723 2.86305 19.4006C2.80739 19.008 3.11102 18.6712 3.49289 18.6712L5.10266 18.6711C5.44796 18.6711 5.76952 18.9217 5.79055 19.2664C5.81389 19.6489 5.51138 19.944 5.15821 19.944Z" fill="white"/>
<path d="M19.8632 14.1939L17.9865 14.1939C17.8301 14.1939 17.6824 14.0878 17.6604 13.9329C17.6337 13.7444 17.7795 13.5827 17.9629 13.5827L19.8365 13.5826C20.0023 13.5826 20.1568 13.703 20.1669 13.8685C20.1781 14.0522 20.0328 14.1939 19.8632 14.1939Z" fill="white"/>
<path d="M19.8634 12.8855L16.5685 12.8855C16.4122 12.8855 16.2644 12.7793 16.2424 12.6245C16.2157 12.4359 16.3615 12.2742 16.5449 12.2742L19.8367 12.2742C20.0025 12.2742 20.1569 12.3945 20.167 12.56C20.1782 12.7437 20.033 12.8855 19.8634 12.8855Z" fill="white"/>
<path d="M19.3623 5.76013C20.1467 6.76674 20.7879 7.86068 21.2791 9.03865C20.4935 8.03284 19.8547 6.93747 19.3623 5.76013Z" fill="white"/>
<path d="M4.74512 9.03798C5.88826 8.16326 7.11934 7.43142 8.43573 6.84888C7.29331 7.72477 6.0608 8.45421 4.74512 9.03798Z" fill="white"/>
<path d="M14.1855 21.4358C15.6149 21.2668 17.047 21.2653 18.4764 21.4358C17.047 21.6063 15.6149 21.605 14.1855 21.4358Z" fill="white"/>
</svg>
