<svg width="24" height="24" viewBox="0 0 24 24" fill="none" xmlns="http://www.w3.org/2000/svg">
<rect width="24" height="24" rx="12" fill="#FAF0FF"/>
<path d="M12.0002 13.8C12.9943 13.8 13.8002 12.9941 13.8002 12C13.8002 11.0058 12.9943 10.2 12.0002 10.2C11.0061 10.2 10.2002 11.0058 10.2002 12C10.2002 12.9941 11.0061 13.8 12.0002 13.8Z" stroke="#BA68C8" stroke-width="0.9" stroke-miterlimit="10" stroke-linecap="round" stroke-linejoin="round"/>
<path d="M6 12.528V11.472C6 10.848 6.51 10.332 7.14 10.332C8.226 10.332 8.67 9.56401 8.124 8.62201C7.812 8.08201 7.998 7.38001 8.544 7.06801L9.582 6.47401C10.056 6.19201 10.668 6.36001 10.95 6.83401L11.016 6.94801C11.556 7.89001 12.444 7.89001 12.99 6.94801L13.056 6.83401C13.338 6.36001 13.95 6.19201 14.424 6.47401L15.462 7.06801C16.008 7.38001 16.194 8.08201 15.882 8.62201C15.336 9.56401 15.78 10.332 16.866 10.332C17.49 10.332 18.006 10.842 18.006 11.472V12.528C18.006 13.152 17.496 13.668 16.866 13.668C15.78 13.668 15.336 14.436 15.882 15.378C16.194 15.924 16.008 16.62 15.462 16.932L14.424 17.526C13.95 17.808 13.338 17.64 13.056 17.166L12.99 17.052C12.45 16.11 11.562 16.11 11.016 17.052L10.95 17.166C10.668 17.64 10.056 17.808 9.582 17.526L8.544 16.932C7.998 16.62 7.812 15.918 8.124 15.378C8.67 14.436 8.226 13.668 7.14 13.668C6.51 13.668 6 13.152 6 12.528Z" stroke="#BA68C8" stroke-width="0.9" stroke-miterlimit="10" stroke-linecap="round" stroke-linejoin="round"/>
</svg>
