<svg width="32" height="33" viewBox="0 0 32 33" fill="none" xmlns="http://www.w3.org/2000/svg">
<path d="M25.8 9.42857H10.2C9.88174 9.42857 9.57652 9.30064 9.35147 9.07292C9.12643 8.84519 9 8.53633 9 8.21429C9 7.89224 9.12643 7.58338 9.35147 7.35566C9.57652 7.12793 9.88174 7 10.2 7H25.8C26.1183 7 26.4235 7.12793 26.6485 7.35566C26.8736 7.58338 27 7.89224 27 8.21429C27 8.53633 26.8736 8.84519 26.6485 9.07292C26.4235 9.30064 26.1183 9.42857 25.8 9.42857ZM27 15.5C27 15.178 26.8736 14.8691 26.6485 14.6414C26.4235 14.4136 26.1183 14.2857 25.8 14.2857H4.2C3.88174 14.2857 3.57652 14.4136 3.35147 14.6414C3.12643 14.8691 3 15.178 3 15.5C3 15.822 3.12643 16.1309 3.35147 16.3586C3.57652 16.5864 3.88174 16.7143 4.2 16.7143H25.8C26.1183 16.7143 26.4235 16.5864 26.6485 16.3586C26.8736 16.1309 27 15.822 27 15.5ZM27 22.7857C27 22.4637 26.8736 22.1548 26.6485 21.9271C26.4235 21.6994 26.1183 21.5714 25.8 21.5714H15C14.6817 21.5714 14.3765 21.6994 14.1515 21.9271C13.9264 22.1548 13.8 22.4637 13.8 22.7857C13.8 23.1078 13.9264 23.4166 14.1515 23.6443C14.3765 23.8721 14.6817 24 15 24H25.8C26.1183 24 26.4235 23.8721 26.6485 23.6443C26.8736 23.4166 27 23.1078 27 22.7857Z" fill="white"/>
</svg>
