<svg width="32" height="32" viewBox="0 0 32 32" fill="none" xmlns="http://www.w3.org/2000/svg">
<path d="M17.333 12H9.33301" stroke="#BA68C8" stroke-width="1.5" stroke-linecap="round" stroke-linejoin="round"/>
<path d="M29.333 14.6265V17.3733C29.333 18.1066 28.7463 18.7066 27.9996 18.7332H25.3863C23.9463 18.7332 22.6263 17.6799 22.5063 16.2399C22.4263 15.3999 22.7463 14.6132 23.3063 14.0666C23.7996 13.5599 24.4796 13.2666 25.2263 13.2666H27.9996C28.7463 13.2933 29.333 13.8932 29.333 14.6265Z" stroke="#BA68C8" stroke-width="1.5" stroke-linecap="round" stroke-linejoin="round"/>
<path d="M23.307 14.0665C22.747 14.6132 22.427 15.3998 22.507 16.2398C22.627 17.6798 23.947 18.7332 25.387 18.7332H28.0003V20.6665C28.0003 24.6665 25.3337 27.3332 21.3337 27.3332H9.33366C5.33366 27.3332 2.66699 24.6665 2.66699 20.6665V11.3332C2.66699 7.7065 4.85366 5.17317 8.25366 4.7465C8.60033 4.69317 8.96033 4.6665 9.33366 4.6665H21.3337C21.6803 4.6665 22.0137 4.67982 22.3337 4.73315C25.7737 5.13315 28.0003 7.67984 28.0003 11.3332V13.2665H25.227C24.4803 13.2665 23.8003 13.5598 23.307 14.0665Z" stroke="#BA68C8" stroke-width="1.5" stroke-linecap="round" stroke-linejoin="round"/>
</svg>
