<svg width="32" height="32" viewBox="0 0 32 32" fill="none" xmlns="http://www.w3.org/2000/svg">
<path d="M29.334 14.6266V17.3732C29.334 18.1066 28.7473 18.7066 28.0006 18.7332H25.3873C23.9473 18.7332 22.6273 17.6799 22.5073 16.2399C22.4273 15.3999 22.7473 14.6132 23.3073 14.0666C23.8006 13.5599 24.4806 13.2666 25.2273 13.2666H28.0006C28.7473 13.2932 29.334 13.8932 29.334 14.6266Z" fill="white"/>
<path d="M27.2937 20.7334H25.387C22.8537 20.7334 20.7203 18.8267 20.507 16.4001C20.387 15.0134 20.8937 13.6267 21.907 12.64C22.7603 11.76 23.947 11.2667 25.227 11.2667H27.2937C27.6803 11.2667 28.0003 10.9467 27.9603 10.5601C27.667 7.32005 25.5203 5.10672 22.3337 4.73338C22.0137 4.68005 21.6803 4.66672 21.3337 4.66672H9.33366C8.96033 4.66672 8.60033 4.69338 8.25366 4.74672C4.85366 5.17338 2.66699 7.70672 2.66699 11.3334V20.6667C2.66699 24.3467 5.65366 27.3334 9.33366 27.3334H21.3337C25.067 27.3334 27.6403 25 27.9603 21.4401C28.0003 21.0534 27.6803 20.7334 27.2937 20.7334ZM17.3337 13.0001H9.33366C8.78699 13.0001 8.33366 12.5467 8.33366 12.0001C8.33366 11.4534 8.78699 11.0001 9.33366 11.0001H17.3337C17.8803 11.0001 18.3337 11.4534 18.3337 12.0001C18.3337 12.5467 17.8803 13.0001 17.3337 13.0001Z" fill="white"/>
</svg>
