<svg width="60" height="61" viewBox="0 0 60 61" fill="none" xmlns="http://www.w3.org/2000/svg">
<g clip-path="url(#clip0_1094_623)">
<path d="M30 0.5C13.5117 0.5 0 14.0117 0 30.5C0 46.9883 13.5117 60.5 30 60.5C46.4883 60.5 60 46.9883 60 30.5C60 14.0117 46.4883 0.5 30 0.5Z" fill="#FF3636"/>
<path d="M60 30.5C60 46.9883 46.4883 60.5 30 60.5V0.5C46.4883 0.5 60 14.0117 60 30.5Z" fill="#F40000"/>
<path d="M34.9569 30.5L44.9063 40.4493L39.9493 45.4063L30 35.4569L20.0507 45.4063L15.0938 40.4493L25.0431 30.5L15.0938 20.5507L20.0507 15.5938L30 25.5431L39.9493 15.5938L44.9063 20.5507L34.9569 30.5Z" fill="#E7E7E7"/>
<path d="M34.9569 30.5L44.9063 40.4493L39.9493 45.4063L30 35.4569V25.5431L39.9493 15.5938L44.9063 20.5507L34.9569 30.5Z" fill="#D3D3D8"/>
</g>
<defs>
<clipPath id="clip0_1094_623">
<rect width="60" height="60" fill="white" transform="translate(0 0.5)"/>
</clipPath>
</defs>
</svg>
